<?xml version="1.0" encoding="UTF-8"?>
<!DOCTYPE svg PUBLIC "-//W3C//DTD SVG 1.1//EN" "http://www.w3.org/Graphics/SVG/1.1/DTD/svg11.dtd">
<svg xmlns="http://www.w3.org/2000/svg" version="1.1" width="282px" height="260px" style="shape-rendering:geometricPrecision; text-rendering:geometricPrecision; image-rendering:optimizeQuality; fill-rule:evenodd; clip-rule:evenodd" xmlns:xlink="http://www.w3.org/1999/xlink">
<g><path style="opacity:0.212" fill="#240f19" d="M 146.5,26.5 C 146.5,26.8333 146.5,27.1667 146.5,27.5C 145.325,27.281 144.325,27.6143 143.5,28.5C 146.306,29.1676 148.972,29.8343 151.5,30.5C 147.395,30.7662 143.395,30.2662 139.5,29C 138.167,28.3333 138.167,27.6667 139.5,27C 141.81,26.5034 144.143,26.3367 146.5,26.5 Z"/></g>
<g><path style="opacity:1" fill="#82233c" d="M 146.5,27.5 C 151.122,27.1561 155.455,27.8227 159.5,29.5C 158.127,29.3433 156.793,29.51 155.5,30C 156.056,30.3826 156.389,30.8826 156.5,31.5C 154.708,31.634 153.042,31.3007 151.5,30.5C 148.972,29.8343 146.306,29.1676 143.5,28.5C 144.325,27.6143 145.325,27.281 146.5,27.5 Z"/></g>
<g><path style="opacity:0.263" fill="#4b0817" d="M 146.5,27.5 C 146.5,27.1667 146.5,26.8333 146.5,26.5C 156.901,26.5068 166.901,28.1735 176.5,31.5C 170.812,30.9944 165.145,30.3277 159.5,29.5C 155.455,27.8227 151.122,27.1561 146.5,27.5 Z"/></g>
<g><path style="opacity:1" fill="#cc2e4e" d="M 159.5,29.5 C 165.145,30.3277 170.812,30.9944 176.5,31.5C 179.653,33.8846 183.32,35.2179 187.5,35.5C 187.833,36.1667 188.167,36.8333 188.5,37.5C 185.594,36.2488 182.594,35.7488 179.5,36C 180.252,36.6708 180.586,37.5041 180.5,38.5C 179.833,38.5 179.167,38.5 178.5,38.5C 177.167,38.1667 175.833,37.8333 174.5,37.5C 172.898,35.9261 170.898,35.2594 168.5,35.5C 168.389,34.8826 168.056,34.3826 167.5,34C 164.223,32.8566 160.89,32.0233 157.5,31.5C 157.167,31.5 156.833,31.5 156.5,31.5C 156.389,30.8826 156.056,30.3826 155.5,30C 156.793,29.51 158.127,29.3433 159.5,29.5 Z"/></g>
<g><path style="opacity:0.2" fill="#430817" d="M 157.5,31.5 C 160.89,32.0233 164.223,32.8566 167.5,34C 168.056,34.3826 168.389,34.8826 168.5,35.5C 165.703,34.7593 162.87,34.0927 160,33.5C 158.624,33.3158 157.791,32.6491 157.5,31.5 Z"/></g>
<g><path style="opacity:0.522" fill="#530b1c" d="M 176.5,31.5 C 180.537,32.0653 184.203,33.3987 187.5,35.5C 183.32,35.2179 179.653,33.8846 176.5,31.5 Z"/></g>
<g><path style="opacity:0.596" fill="#58071b" d="M 168.5,35.5 C 170.898,35.2594 172.898,35.9261 174.5,37.5C 172.102,37.7406 170.102,37.0739 168.5,35.5 Z"/></g>
<g><path style="opacity:0.362" fill="#07233f" d="M 163.5,41.5 C 160.14,41.3841 156.807,41.0508 153.5,40.5C 150.512,38.8598 147.179,38.0265 143.5,38C 132.819,37.3895 122.153,37.5562 111.5,38.5C 129.115,34.0783 146.449,35.0783 163.5,41.5 Z"/></g>
<g><path style="opacity:0.357" fill="#4a0c1e" d="M 187.5,35.5 C 190.089,35.461 192.089,36.461 193.5,38.5C 192.167,38.1667 190.833,37.8333 189.5,37.5C 189.167,37.5 188.833,37.5 188.5,37.5C 188.167,36.8333 187.833,36.1667 187.5,35.5 Z"/></g>
<g><path style="opacity:1" fill="#2076b3" d="M 153.5,40.5 C 152.167,40.5 150.833,40.5 149.5,40.5C 148.833,40.5 148.167,40.5 147.5,40.5C 146.048,39.6981 144.382,39.1981 142.5,39C 128.124,37.542 114.124,39.042 100.5,43.5C 104.083,41.6396 107.749,39.9729 111.5,38.5C 122.153,37.5562 132.819,37.3895 143.5,38C 147.179,38.0265 150.512,38.8598 153.5,40.5 Z"/></g>
<g><path style="opacity:0.243" fill="#3f081e" d="M 174.5,37.5 C 175.833,37.8333 177.167,38.1667 178.5,38.5C 178.833,39.1667 179.167,39.8333 179.5,40.5C 177.152,40.4077 175.486,39.4077 174.5,37.5 Z"/></g>
<g><path style="opacity:1" fill="#be2c49" d="M 189.5,37.5 C 190.833,37.8333 192.167,38.1667 193.5,38.5C 195.349,39.593 197.016,40.9263 198.5,42.5C 194.665,42.1287 191.665,40.462 189.5,37.5 Z"/></g>
<g><path style="opacity:0.353" fill="#07274b" d="M 163.5,41.5 C 171.032,43.2659 177.699,46.5992 183.5,51.5C 180.86,50.5515 178.193,49.5515 175.5,48.5C 171.5,46.1667 167.5,43.8333 163.5,41.5 Z"/></g>
<g><path style="opacity:0.737" fill="#621027" d="M 178.5,38.5 C 179.167,38.5 179.833,38.5 180.5,38.5C 181.659,40.2503 183.326,41.2503 185.5,41.5C 187.64,44.0613 189.973,46.3946 192.5,48.5C 187.891,46.2131 183.558,43.5464 179.5,40.5C 179.167,39.8333 178.833,39.1667 178.5,38.5 Z"/></g>
<g><path style="opacity:1" fill="#cc2a51" d="M 185.5,41.5 C 187.179,41.8923 188.846,42.3923 190.5,43C 193.814,45.2589 196.48,48.0923 198.5,51.5C 197.833,51.5 197.167,51.5 196.5,51.5C 195.738,49.7376 194.404,48.7376 192.5,48.5C 189.973,46.3946 187.64,44.0613 185.5,41.5 Z"/></g>
<g><path style="opacity:1" fill="#1c9aee" d="M 147.5,40.5 C 141.168,41.5972 134.835,41.7639 128.5,41C 128.571,43.1163 128.238,45.2829 127.5,47.5C 125.102,47.2594 123.102,47.9261 121.5,49.5C 113.079,49.4276 104.745,50.261 96.5,52C 95.944,52.3826 95.6107,52.8826 95.5,53.5C 93.8561,53.2865 92.3561,53.6198 91,54.5C 90.0508,51.8003 88.2175,50.967 85.5,52C 83.3428,53.9121 81.0094,55.5787 78.5,57C 78.9981,58.1581 79.8315,58.9915 81,59.5C 83.1122,56.5258 85.9455,55.3591 89.5,56C 88.944,56.3826 88.6107,56.8826 88.5,57.5C 85.5055,59.0042 82.8388,61.0042 80.5,63.5C 79.8589,62.0065 78.8589,61.0065 77.5,60.5C 77.5,59.1667 76.8333,58.5 75.5,58.5C 76.1667,57.5 76.8333,56.5 77.5,55.5C 79.2701,54.236 80.9368,52.736 82.5,51C 88.4633,48.1781 94.4633,45.6781 100.5,43.5C 114.124,39.042 128.124,37.542 142.5,39C 144.382,39.1981 146.048,39.6981 147.5,40.5 Z"/></g>
<g><path style="opacity:1" fill="#149bf1" d="M 147.5,40.5 C 148.167,40.5 148.833,40.5 149.5,40.5C 149.937,42.0744 150.937,43.2411 152.5,44C 151.748,44.6708 151.414,45.5041 151.5,46.5C 149.321,47.0592 147.154,47.7259 145,48.5C 139.215,47.5656 133.382,47.2323 127.5,47.5C 128.238,45.2829 128.571,43.1163 128.5,41C 134.835,41.7639 141.168,41.5972 147.5,40.5 Z"/></g>
<g><path style="opacity:1" fill="#2297e8" d="M 127.5,47.5 C 127.611,48.1174 127.944,48.6174 128.5,49C 132.167,49.3333 135.833,49.6667 139.5,50C 135.457,50.5891 131.457,51.2558 127.5,52C 133.206,52.047 138.539,53.2136 143.5,55.5C 131.998,54.8253 120.665,55.8253 109.5,58.5C 108.287,58.7472 107.62,59.4138 107.5,60.5C 103.993,60.9205 100.659,61.9205 97.5,63.5C 99.5901,61.6098 101.923,59.9431 104.5,58.5C 103.675,57.6143 102.675,57.281 101.5,57.5C 102.78,56.0687 104.447,55.4021 106.5,55.5C 107.274,56.1471 108.274,56.4805 109.5,56.5C 113.754,55.7881 117.754,54.4548 121.5,52.5C 122.776,51.3864 122.776,50.3864 121.5,49.5C 123.102,47.9261 125.102,47.2594 127.5,47.5 Z"/></g>
<g><path style="opacity:1" fill="#eb294e" d="M 188.5,37.5 C 188.833,37.5 189.167,37.5 189.5,37.5C 191.665,40.462 194.665,42.1287 198.5,42.5C 201.54,43.6803 204.206,45.347 206.5,47.5C 206.5,48.5 206.5,49.5 206.5,50.5C 207.93,50.4208 209.264,50.7542 210.5,51.5C 212.006,53.4014 213.673,55.0681 215.5,56.5C 213.741,56.9539 211.741,56.9539 209.5,56.5C 211.008,63.3386 215.008,68.0053 221.5,70.5C 221.297,72.3904 221.963,73.8904 223.5,75C 222.62,76.3561 222.286,77.8561 222.5,79.5C 218.328,73.177 213.661,67.177 208.5,61.5C 206.167,57.1667 202.833,53.8333 198.5,51.5C 196.48,48.0923 193.814,45.2589 190.5,43C 188.846,42.3923 187.179,41.8923 185.5,41.5C 183.326,41.2503 181.659,40.2503 180.5,38.5C 180.586,37.5041 180.252,36.6708 179.5,36C 182.594,35.7488 185.594,36.2488 188.5,37.5 Z"/></g>
<g><path style="opacity:1" fill="#1e98ea" d="M 149.5,40.5 C 150.833,40.5 152.167,40.5 153.5,40.5C 156.807,41.0508 160.14,41.3841 163.5,41.5C 167.5,43.8333 171.5,46.1667 175.5,48.5C 171.99,48.668 168.49,49.0013 165,49.5C 163.014,49.5687 161.514,50.2353 160.5,51.5C 159.015,50.0651 157.682,50.2317 156.5,52C 147.846,52.6932 147.846,51.1932 156.5,47.5C 154.955,46.5481 153.288,46.2148 151.5,46.5C 151.414,45.5041 151.748,44.6708 152.5,44C 150.937,43.2411 149.937,42.0744 149.5,40.5 Z"/></g>
<g><path style="opacity:1" fill="#149bf5" d="M 121.5,49.5 C 122.776,50.3864 122.776,51.3864 121.5,52.5C 117.754,54.4548 113.754,55.7881 109.5,56.5C 108.274,56.4805 107.274,56.1471 106.5,55.5C 108.167,55.5 109.833,55.5 111.5,55.5C 111.5,54.5 111.5,53.5 111.5,52.5C 107.497,53.3634 103.497,54.3634 99.5,55.5C 97.8295,55.3318 96.4961,54.6651 95.5,53.5C 95.6107,52.8826 95.944,52.3826 96.5,52C 104.745,50.261 113.079,49.4276 121.5,49.5 Z"/></g>
<g><path style="opacity:1" fill="#139bf4" d="M 151.5,46.5 C 153.288,46.2148 154.955,46.5481 156.5,47.5C 147.846,51.1932 147.846,52.6932 156.5,52C 157.682,50.2317 159.015,50.0651 160.5,51.5C 162.648,51.3894 162.981,52.056 161.5,53.5C 155.59,54.9577 149.59,55.6243 143.5,55.5C 138.539,53.2136 133.206,52.047 127.5,52C 131.457,51.2558 135.457,50.5891 139.5,50C 135.833,49.6667 132.167,49.3333 128.5,49C 127.944,48.6174 127.611,48.1174 127.5,47.5C 133.382,47.2323 139.215,47.5656 145,48.5C 147.154,47.7259 149.321,47.0592 151.5,46.5 Z"/></g>
<g><path style="opacity:1" fill="#1c98e9" d="M 175.5,48.5 C 178.193,49.5515 180.86,50.5515 183.5,51.5C 186.312,54.4015 189.312,57.0681 192.5,59.5C 189.136,60.2107 186.803,59.044 185.5,56C 183.866,55.5065 182.199,55.3398 180.5,55.5C 180.5,54.5 180.5,53.5 180.5,52.5C 177.368,52.7837 174.368,53.617 171.5,55C 169.013,56.792 166.346,58.292 163.5,59.5C 165.465,60.2922 167.465,60.9588 169.5,61.5C 170.386,62.325 170.719,63.325 170.5,64.5C 166.554,62.0938 162.22,60.7605 157.5,60.5C 153.195,58.2538 148.529,56.9205 143.5,56.5C 143.5,56.1667 143.5,55.8333 143.5,55.5C 149.59,55.6243 155.59,54.9577 161.5,53.5C 162.981,52.056 162.648,51.3894 160.5,51.5C 161.514,50.2353 163.014,49.5687 165,49.5C 168.49,49.0013 171.99,48.668 175.5,48.5 Z"/></g>
<g><path style="opacity:0.329" fill="#3c0a17" d="M 192.5,48.5 C 194.404,48.7376 195.738,49.7376 196.5,51.5C 194.596,51.2624 193.262,50.2624 192.5,48.5 Z"/></g>
<g><path style="opacity:0.055" fill="#4d0919" d="M 193.5,38.5 C 196.016,38.7553 198.35,39.5886 200.5,41C 210.203,47.03 219.036,54.1967 227,62.5C 227.464,63.0944 227.631,63.7611 227.5,64.5C 226.167,63.5 224.833,62.5 223.5,61.5C 219.766,57.4521 215.766,53.6187 211.5,50C 209.922,48.9055 208.255,48.0722 206.5,47.5C 204.206,45.347 201.54,43.6803 198.5,42.5C 197.016,40.9263 195.349,39.593 193.5,38.5 Z"/></g>
<g><path style="opacity:0.384" fill="#3d0816" d="M 196.5,51.5 C 197.167,51.5 197.833,51.5 198.5,51.5C 201.167,54.5 203.833,57.5 206.5,60.5C 202.564,58.2343 199.231,55.2343 196.5,51.5 Z"/></g>
<g><path style="opacity:1" fill="#ad2443" d="M 198.5,51.5 C 202.833,53.8333 206.167,57.1667 208.5,61.5C 207.833,61.1667 207.167,60.8333 206.5,60.5C 203.833,57.5 201.167,54.5 198.5,51.5 Z"/></g>
<g><path style="opacity:1" fill="#0f9cf3" d="M 95.5,53.5 C 96.4961,54.6651 97.8295,55.3318 99.5,55.5C 103.497,54.3634 107.497,53.3634 111.5,52.5C 111.5,53.5 111.5,54.5 111.5,55.5C 109.833,55.5 108.167,55.5 106.5,55.5C 104.447,55.4021 102.78,56.0687 101.5,57.5C 98.0414,58.0677 95.0414,59.401 92.5,61.5C 92.5,60.5 92.5,59.5 92.5,58.5C 91.0413,58.5674 89.7079,58.2341 88.5,57.5C 88.6107,56.8826 88.944,56.3826 89.5,56C 85.9455,55.3591 83.1122,56.5258 81,59.5C 79.8315,58.9915 78.9981,58.1581 78.5,57C 81.0094,55.5787 83.3428,53.9121 85.5,52C 88.2175,50.967 90.0508,51.8003 91,54.5C 92.3561,53.6198 93.8561,53.2865 95.5,53.5 Z"/></g>
<g><path style="opacity:0.325" fill="#06294d" d="M 183.5,51.5 C 188.628,53.9041 193.295,57.0708 197.5,61C 200.118,63.1057 202.118,65.6057 203.5,68.5C 200.124,65.1218 196.457,62.1218 192.5,59.5C 189.312,57.0681 186.312,54.4015 183.5,51.5 Z"/></g>
<g><path style="opacity:0.278" fill="#042b4f" d="M 111.5,38.5 C 107.749,39.9729 104.083,41.6396 100.5,43.5C 94.4633,45.6781 88.4633,48.1781 82.5,51C 80.9368,52.736 79.2701,54.236 77.5,55.5C 75.0676,56.7502 72.7343,58.2502 70.5,60C 64.9362,65.3953 59.6029,70.8953 54.5,76.5C 64.9543,61.5592 78.621,50.3925 95.5,43C 100.713,40.9835 106.046,39.4835 111.5,38.5 Z"/></g>
<g><path style="opacity:1" fill="#ce2f50" d="M 206.5,47.5 C 208.255,48.0722 209.922,48.9055 211.5,50C 215.766,53.6187 219.766,57.4521 223.5,61.5C 220.585,60.2558 217.918,58.5891 215.5,56.5C 213.673,55.0681 212.006,53.4014 210.5,51.5C 209.264,50.7542 207.93,50.4208 206.5,50.5C 206.5,49.5 206.5,48.5 206.5,47.5 Z"/></g>
<g><path style="opacity:0.255" fill="#0c385e" d="M 143.5,55.5 C 143.5,55.8333 143.5,56.1667 143.5,56.5C 137.974,56.1786 132.64,56.5119 127.5,57.5C 120.678,57.54 114.011,58.54 107.5,60.5C 107.62,59.4138 108.287,58.7472 109.5,58.5C 120.665,55.8253 131.998,54.8253 143.5,55.5 Z"/></g>
<g><path style="opacity:0.259" fill="#032348" d="M 127.5,57.5 C 132.64,56.5119 137.974,56.1786 143.5,56.5C 148.529,56.9205 153.195,58.2538 157.5,60.5C 147.684,57.9534 137.684,56.9534 127.5,57.5 Z"/></g>
<g><path style="opacity:1" fill="#1c9af4" d="M 88.5,57.5 C 89.7079,58.2341 91.0413,58.5674 92.5,58.5C 92.5,59.5 92.5,60.5 92.5,61.5C 95.0414,59.401 98.0414,58.0677 101.5,57.5C 102.675,57.281 103.675,57.6143 104.5,58.5C 101.923,59.9431 99.5901,61.6098 97.5,63.5C 97.1667,63.5 96.8333,63.5 96.5,63.5C 93.5446,65.3863 90.2113,66.3863 86.5,66.5C 86.5,67.5 86.5,68.5 86.5,69.5C 85.0222,69.762 83.6888,69.4287 82.5,68.5C 84.4005,67.4554 86.0672,66.1221 87.5,64.5C 86.8333,64.1667 86.1667,63.8333 85.5,63.5C 83.4096,65.1058 81.0762,65.6058 78.5,65C 76.2177,63.9158 75.8843,62.4158 77.5,60.5C 78.8589,61.0065 79.8589,62.0065 80.5,63.5C 82.8388,61.0042 85.5055,59.0042 88.5,57.5 Z"/></g>
<g><path style="opacity:0.251" fill="#042d51" d="M 107.5,60.5 C 102.689,63.0698 97.6894,65.4032 92.5,67.5C 93.5274,65.8058 94.8608,64.4725 96.5,63.5C 96.8333,63.5 97.1667,63.5 97.5,63.5C 100.659,61.9205 103.993,60.9205 107.5,60.5 Z"/></g>
<g><path style="opacity:1" fill="#b22d4b" d="M 223.5,61.5 C 224.833,62.5 226.167,63.5 227.5,64.5C 227.5,65.1667 227.5,65.8333 227.5,66.5C 225.413,65.4154 224.08,63.7488 223.5,61.5 Z"/></g>
<g><path style="opacity:1" fill="#179bf2" d="M 192.5,59.5 C 193.455,61.7457 194.122,64.079 194.5,66.5C 195.791,66.2627 196.791,66.596 197.5,67.5C 195.824,68.1834 195.157,69.5168 195.5,71.5C 193.863,70.7822 192.197,70.6155 190.5,71C 190.833,71.3333 191.167,71.6667 191.5,72C 190.167,72.6667 188.833,72.6667 187.5,72C 184.648,68.6515 181.314,65.8182 177.5,63.5C 176.833,64.5 176.167,65.5 175.5,66.5C 174.583,65.8728 173.583,65.5394 172.5,65.5C 171.508,65.6716 170.842,65.3382 170.5,64.5C 170.719,63.325 170.386,62.325 169.5,61.5C 167.465,60.9588 165.465,60.2922 163.5,59.5C 166.346,58.292 169.013,56.792 171.5,55C 174.368,53.617 177.368,52.7837 180.5,52.5C 180.5,53.5 180.5,54.5 180.5,55.5C 182.199,55.3398 183.866,55.5065 185.5,56C 186.803,59.044 189.136,60.2107 192.5,59.5 Z"/></g>
<g><path style="opacity:0.188" fill="#4f0e1d" d="M 173.5,77.5 C 173.721,78.7348 174.388,79.7348 175.5,80.5C 175.043,81.2975 174.376,81.6309 173.5,81.5C 170.982,80.7362 168.649,79.7362 166.5,78.5C 168.262,78.3573 169.929,78.6906 171.5,79.5C 172.833,78.8333 172.833,78.1667 171.5,77.5C 164.36,72.7586 156.693,69.4253 148.5,67.5C 147.833,67.5 147.167,67.5 146.5,67.5C 145.737,66.7321 144.737,66.2321 143.5,66C 135.173,65.5003 126.84,65.3336 118.5,65.5C 138.633,61.3264 156.966,65.3264 173.5,77.5 Z"/></g>
<g><path style="opacity:0.588" fill="#430916" d="M 227.5,64.5 C 231.3,66.9626 233.967,70.296 235.5,74.5C 233.194,71.5271 230.527,68.8605 227.5,66.5C 227.5,65.8333 227.5,65.1667 227.5,64.5 Z"/></g>
<g><path style="opacity:0.329" fill="#470512" d="M 118.5,65.5 C 117.167,66.1667 115.833,66.8333 114.5,67.5C 113.167,67.5 111.833,67.5 110.5,67.5C 112.838,65.9605 115.505,65.2938 118.5,65.5 Z"/></g>
<g><path style="opacity:1" fill="#b92a48" d="M 118.5,65.5 C 126.84,65.3336 135.173,65.5003 143.5,66C 144.737,66.2321 145.737,66.7321 146.5,67.5C 135.835,66.2056 125.169,66.2056 114.5,67.5C 115.833,66.8333 117.167,66.1667 118.5,65.5 Z"/></g>
<g><path style="opacity:0.765" fill="#0d466e" d="M 157.5,60.5 C 162.22,60.7605 166.554,62.0938 170.5,64.5C 170.842,65.3382 171.508,65.6716 172.5,65.5C 174.183,66.8534 175.516,68.5201 176.5,70.5C 170.285,66.8932 163.952,63.5599 157.5,60.5 Z"/></g>
<g><path style="opacity:0.573" fill="#560b20" d="M 110.5,67.5 C 107.979,68.9913 105.646,70.658 103.5,72.5C 101.167,73.1667 98.8333,73.8333 96.5,74.5C 100.314,70.6603 104.981,68.327 110.5,67.5 Z"/></g>
<g><path style="opacity:1" fill="#199aed" d="M 75.5,58.5 C 76.8333,58.5 77.5,59.1667 77.5,60.5C 75.8843,62.4158 76.2177,63.9158 78.5,65C 81.0762,65.6058 83.4096,65.1058 85.5,63.5C 86.1667,63.8333 86.8333,64.1667 87.5,64.5C 86.0672,66.1221 84.4005,67.4554 82.5,68.5C 83.6888,69.4287 85.0222,69.762 86.5,69.5C 86.5,68.5 86.5,67.5 86.5,66.5C 90.2113,66.3863 93.5446,65.3863 96.5,63.5C 94.8608,64.4725 93.5274,65.8058 92.5,67.5C 89.8602,67.954 87.5268,69.1207 85.5,71C 79.6002,76.0646 74.2669,81.5646 69.5,87.5C 69.5789,85.3337 70.2455,83.3337 71.5,81.5C 70.7202,80.0505 70.0535,78.5505 69.5,77C 69.7549,75.6739 70.4216,74.6739 71.5,74C 70.5,73.3333 69.5,73.3333 68.5,74C 67.3147,75.353 65.9814,76.5197 64.5,77.5C 63.5713,76.3112 63.238,74.9778 63.5,73.5C 64.5,73.5 65.5,73.5 66.5,73.5C 69.5778,71.5789 70.2444,68.9122 68.5,65.5C 69.8834,62.1164 72.2167,59.7831 75.5,58.5 Z"/></g>
<g><path style="opacity:0.522" fill="#052952" d="M 203.5,68.5 C 205.914,69.9108 207.581,71.9108 208.5,74.5C 206.833,73.1667 205.167,71.8333 203.5,70.5C 203.5,69.8333 203.5,69.1667 203.5,68.5 Z"/></g>
<g><path style="opacity:1" fill="#b42a45" d="M 110.5,67.5 C 111.833,67.5 113.167,67.5 114.5,67.5C 111.198,69.7229 107.532,71.3895 103.5,72.5C 105.646,70.658 107.979,68.9913 110.5,67.5 Z"/></g>
<g><path style="opacity:1" fill="#ef274e" d="M 146.5,67.5 C 147.167,67.5 147.833,67.5 148.5,67.5C 150.289,69.0072 152.289,70.3405 154.5,71.5C 147.858,72.3309 141.191,72.8309 134.5,73C 131.809,73.1558 129.476,73.9891 127.5,75.5C 125.143,75.3367 122.81,75.5034 120.5,76C 116.884,77.8115 113.217,79.3115 109.5,80.5C 109.349,77.2819 108.516,76.9485 107,79.5C 105.708,78.2089 104.542,78.2089 103.5,79.5C 102.957,79.44 102.624,79.1067 102.5,78.5C 103.853,77.4763 104.52,76.143 104.5,74.5C 103.178,74.33 102.011,74.6634 101,75.5C 100.483,78.5497 98.9831,80.883 96.5,82.5C 95.7025,82.0431 95.3691,81.3764 95.5,80.5C 95.6309,79.6236 95.2975,78.9569 94.5,78.5C 93.5832,79.1272 92.5832,79.4606 91.5,79.5C 92.973,77.6053 94.6397,75.9387 96.5,74.5C 98.8333,73.8333 101.167,73.1667 103.5,72.5C 107.532,71.3895 111.198,69.7229 114.5,67.5C 125.169,66.2056 135.835,66.2056 146.5,67.5 Z"/></g>
<g><path style="opacity:0.349" fill="#032c50" d="M 176.5,70.5 C 178.404,70.7376 179.738,71.7376 180.5,73.5C 178.596,73.2624 177.262,72.2624 176.5,70.5 Z"/></g>
<g><path style="opacity:1" fill="#d52951" d="M 227.5,66.5 C 230.527,68.8605 233.194,71.5271 235.5,74.5C 235.427,76.0269 236.094,77.0269 237.5,77.5C 237.5,78.1667 237.5,78.8333 237.5,79.5C 234.828,77.4628 232.161,75.4628 229.5,73.5C 228.067,71.4418 227.4,69.1085 227.5,66.5 Z"/></g>
<g><path style="opacity:1" fill="#bc2948" d="M 148.5,67.5 C 156.693,69.4253 164.36,72.7586 171.5,77.5C 172.833,78.1667 172.833,78.8333 171.5,79.5C 169.929,78.6906 168.262,78.3573 166.5,78.5C 163.325,76.1204 159.658,75.1204 155.5,75.5C 154.833,75.5 154.167,75.5 153.5,75.5C 144.994,74.4451 136.327,74.4451 127.5,75.5C 129.476,73.9891 131.809,73.1558 134.5,73C 141.191,72.8309 147.858,72.3309 154.5,71.5C 152.289,70.3405 150.289,69.0072 148.5,67.5 Z"/></g>
<g><path style="opacity:1" fill="#1c99e9" d="M 195.5,71.5 C 195.833,71.5 196.167,71.5 196.5,71.5C 197.942,72.8195 198.608,74.4862 198.5,76.5C 195.269,75.6322 191.935,75.6322 188.5,76.5C 188.5,77.5 188.5,78.5 188.5,79.5C 186.098,77.0908 183.431,75.0908 180.5,73.5C 179.738,71.7376 178.404,70.7376 176.5,70.5C 175.516,68.5201 174.183,66.8534 172.5,65.5C 173.583,65.5394 174.583,65.8728 175.5,66.5C 176.167,65.5 176.833,64.5 177.5,63.5C 181.314,65.8182 184.648,68.6515 187.5,72C 188.833,72.6667 190.167,72.6667 191.5,72C 191.167,71.6667 190.833,71.3333 190.5,71C 192.197,70.6155 193.863,70.7822 195.5,71.5 Z"/></g>
<g><path style="opacity:1" fill="#179bf2" d="M 66.5,73.5 C 65.5,73.5 64.5,73.5 63.5,73.5C 63.238,74.9778 63.5713,76.3112 64.5,77.5C 65.9814,76.5197 67.3147,75.353 68.5,74C 69.5,73.3333 70.5,73.3333 71.5,74C 70.4216,74.6739 69.7549,75.6739 69.5,77C 70.0535,78.5505 70.7202,80.0505 71.5,81.5C 70.2455,83.3337 69.5789,85.3337 69.5,87.5C 68.8333,88.1667 68.1667,88.8333 67.5,89.5C 65.2033,88.261 64.87,86.4276 66.5,84C 64.2586,81.0913 61.2586,79.9246 57.5,80.5C 56.668,76.5031 58.168,73.8364 62,72.5C 62.4828,71.552 62.6495,70.552 62.5,69.5C 63.8333,69.5 65.1667,69.5 66.5,69.5C 66.5,70.8333 66.5,72.1667 66.5,73.5 Z"/></g>
<g><path style="opacity:0.863" fill="#1f69a0" d="M 203.5,70.5 C 205.167,71.8333 206.833,73.1667 208.5,74.5C 209.906,74.9731 210.573,75.9731 210.5,77.5C 210.5,78.1667 210.5,78.8333 210.5,79.5C 207.791,76.7915 205.458,73.7915 203.5,70.5 Z"/></g>
<g><path style="opacity:0.192" fill="#480917" d="M 96.5,74.5 C 94.6397,75.9387 92.973,77.6053 91.5,79.5C 87.562,82.0985 83.8953,85.0985 80.5,88.5C 84.2764,82.0572 89.6097,77.3905 96.5,74.5 Z"/></g>
<g><path style="opacity:1" fill="#199bef" d="M 196.5,71.5 C 197.496,71.4142 198.329,71.7476 199,72.5C 199.958,76.041 202.125,78.3743 205.5,79.5C 205.5,80.5 205.5,81.5 205.5,82.5C 203.833,82.5 202.167,82.5 200.5,82.5C 200.286,84.1439 200.62,85.6439 201.5,87C 199.618,87.1981 197.952,87.6981 196.5,88.5C 193.608,85.729 190.942,82.729 188.5,79.5C 188.5,78.5 188.5,77.5 188.5,76.5C 191.935,75.6322 195.269,75.6322 198.5,76.5C 198.608,74.4862 197.942,72.8195 196.5,71.5 Z"/></g>
<g><path style="opacity:0.161" fill="#370912" d="M 235.5,74.5 C 236.906,74.9731 237.573,75.9731 237.5,77.5C 236.094,77.0269 235.427,76.0269 235.5,74.5 Z"/></g>
<g><path style="opacity:0.125" fill="#44091b" d="M 155.5,75.5 C 159.658,75.1204 163.325,76.1204 166.5,78.5C 162.573,78.0743 158.907,77.0743 155.5,75.5 Z"/></g>
<g><path style="opacity:1" fill="#f1254c" d="M 215.5,56.5 C 217.918,58.5891 220.585,60.2558 223.5,61.5C 224.08,63.7488 225.413,65.4154 227.5,66.5C 227.4,69.1085 228.067,71.4418 229.5,73.5C 227.088,73.6941 226.088,75.0274 226.5,77.5C 228.604,77.2011 230.604,77.5344 232.5,78.5C 232.068,82.1305 230.901,85.4638 229,88.5C 227.989,84.5562 225.822,81.5562 222.5,79.5C 222.286,77.8561 222.62,76.3561 223.5,75C 221.963,73.8904 221.297,72.3904 221.5,70.5C 215.008,68.0053 211.008,63.3386 209.5,56.5C 211.741,56.9539 213.741,56.9539 215.5,56.5 Z"/></g>
<g><path style="opacity:0.149" fill="#091f3e" d="M 54.5,76.5 C 54.2503,78.674 53.2503,80.3406 51.5,81.5C 51.7497,79.326 52.7497,77.6594 54.5,76.5 Z"/></g>
<g><path style="opacity:0.173" fill="#38060e" d="M 237.5,77.5 C 238.906,77.9731 239.573,78.9731 239.5,80.5C 238.833,80.1667 238.167,79.8333 237.5,79.5C 237.5,78.8333 237.5,78.1667 237.5,77.5 Z"/></g>
<g><path style="opacity:1" fill="#e92a50" d="M 127.5,75.5 C 124.322,77.0086 120.989,78.342 117.5,79.5C 114.341,81.0795 111.007,82.0795 107.5,82.5C 107.522,85.9978 106.022,87.3311 103,86.5C 102.51,87.7932 102.343,89.1266 102.5,90.5C 100.605,91.973 98.9387,93.6397 97.5,95.5C 95.1878,97.1455 93.1878,99.1455 91.5,101.5C 91.3379,99.4727 91.5045,97.4727 92,95.5C 93.9362,92.897 96.4362,91.0637 99.5,90C 98.2889,88.8869 98.2889,87.7202 99.5,86.5C 104.657,85.7725 105.99,83.4392 103.5,79.5C 104.542,78.2089 105.708,78.2089 107,79.5C 108.516,76.9485 109.349,77.2819 109.5,80.5C 113.217,79.3115 116.884,77.8115 120.5,76C 122.81,75.5034 125.143,75.3367 127.5,75.5 Z"/></g>
<g><path style="opacity:0.353" fill="#4e0c1e" d="M 206.5,60.5 C 207.167,60.8333 207.833,61.1667 208.5,61.5C 213.661,67.177 218.328,73.177 222.5,79.5C 224.391,82.8919 226.058,86.3919 227.5,90C 229.684,90.1206 231.684,89.6206 233.5,88.5C 234.833,88.5 236.167,88.5 237.5,88.5C 234.769,90.1981 231.769,91.5315 228.5,92.5C 224.183,86.9739 220.349,80.9739 217,74.5C 213.644,69.6549 210.144,64.9883 206.5,60.5 Z"/></g>
<g><path style="opacity:0.392" fill="#083761" d="M 92.5,67.5 C 80.3139,76.3486 70.6472,87.3486 63.5,100.5C 64.5187,96.7809 65.8521,93.1143 67.5,89.5C 68.1667,88.8333 68.8333,88.1667 69.5,87.5C 74.2669,81.5646 79.6002,76.0646 85.5,71C 87.5268,69.1207 89.8602,67.954 92.5,67.5 Z"/></g>
<g><path style="opacity:0.314" fill="#240e17" d="M 173.5,77.5 C 175.812,78.4782 177.478,80.1448 178.5,82.5C 176.418,83.8943 174.751,83.561 173.5,81.5C 174.376,81.6309 175.043,81.2975 175.5,80.5C 174.388,79.7348 173.721,78.7348 173.5,77.5 Z"/></g>
<g><path style="opacity:1" fill="#c5294a" d="M 117.5,79.5 C 115.235,81.642 112.568,83.3087 109.5,84.5C 108.614,85.325 108.281,86.325 108.5,87.5C 106.059,87.7499 104.059,88.7499 102.5,90.5C 102.343,89.1266 102.51,87.7932 103,86.5C 106.022,87.3311 107.522,85.9978 107.5,82.5C 111.007,82.0795 114.341,81.0795 117.5,79.5 Z"/></g>
<g><path style="opacity:0.302" fill="#450916" d="M 153.5,75.5 C 137.001,74.3728 122.001,78.3728 108.5,87.5C 108.281,86.325 108.614,85.325 109.5,84.5C 112.568,83.3087 115.235,81.642 117.5,79.5C 120.989,78.342 124.322,77.0086 127.5,75.5C 136.327,74.4451 144.994,74.4451 153.5,75.5 Z"/></g>
<g><path style="opacity:1" fill="#189af2" d="M 197.5,67.5 C 201.431,69.0097 203.097,72.0097 202.5,76.5C 203.873,76.3433 205.207,76.51 206.5,77C 207.11,78.9472 207.943,80.7806 209,82.5C 209.333,81.8333 209.667,81.1667 210,80.5C 211.11,85.6936 213.61,90.027 217.5,93.5C 212.967,94.7475 208.467,96.0809 204,97.5C 202.697,97.0217 201.531,96.355 200.5,95.5C 198.412,93.6644 197.079,91.3311 196.5,88.5C 197.952,87.6981 199.618,87.1981 201.5,87C 200.62,85.6439 200.286,84.1439 200.5,82.5C 202.167,82.5 203.833,82.5 205.5,82.5C 205.5,81.5 205.5,80.5 205.5,79.5C 202.125,78.3743 199.958,76.041 199,72.5C 198.329,71.7476 197.496,71.4142 196.5,71.5C 196.167,71.5 195.833,71.5 195.5,71.5C 195.157,69.5168 195.824,68.1834 197.5,67.5 Z"/></g>
<g><path style="opacity:0.757" fill="#0f3e65" d="M 210.5,77.5 C 214.944,82.2031 218.278,87.7031 220.5,94C 220.164,95.0299 219.497,95.5299 218.5,95.5C 218.657,94.1266 218.49,92.7932 218,91.5C 215.212,87.5711 212.712,83.5711 210.5,79.5C 210.5,78.8333 210.5,78.1667 210.5,77.5 Z"/></g>
<g><path style="opacity:1" fill="#ee2752" d="M 229.5,73.5 C 232.161,75.4628 234.828,77.4628 237.5,79.5C 237.357,81.2624 237.691,82.9291 238.5,84.5C 236.79,85.8872 235.123,87.2206 233.5,88.5C 231.684,89.6206 229.684,90.1206 227.5,90C 226.058,86.3919 224.391,82.8919 222.5,79.5C 225.822,81.5562 227.989,84.5562 229,88.5C 230.901,85.4638 232.068,82.1305 232.5,78.5C 230.604,77.5344 228.604,77.2011 226.5,77.5C 226.088,75.0274 227.088,73.6941 229.5,73.5 Z"/></g>
<g><path style="opacity:1" fill="#ab2944" d="M 237.5,79.5 C 238.167,79.8333 238.833,80.1667 239.5,80.5C 241.31,83.93 240.643,86.5966 237.5,88.5C 236.167,88.5 234.833,88.5 233.5,88.5C 235.123,87.2206 236.79,85.8872 238.5,84.5C 237.691,82.9291 237.357,81.2624 237.5,79.5 Z"/></g>
<g><path style="opacity:0.322" fill="#3a0917" d="M 239.5,80.5 C 243.948,84.4855 243.282,87.1522 237.5,88.5C 240.643,86.5966 241.31,83.93 239.5,80.5 Z"/></g>
<g><path style="opacity:1" fill="#b22846" d="M 91.5,79.5 C 89.8333,81.5 88.1667,83.5 86.5,85.5C 81.8017,89.2636 77.8017,93.5969 74.5,98.5C 74.5,97.8333 74.5,97.1667 74.5,96.5C 74.3284,95.5084 74.6618,94.8417 75.5,94.5C 77.6326,92.9095 79.2993,90.9095 80.5,88.5C 83.8953,85.0985 87.562,82.0985 91.5,79.5 Z"/></g>
<g><path style="opacity:1" fill="#1b97e6" d="M 77.5,55.5 C 76.8333,56.5 76.1667,57.5 75.5,58.5C 72.2167,59.7831 69.8834,62.1164 68.5,65.5C 70.2444,68.9122 69.5778,71.5789 66.5,73.5C 66.5,72.1667 66.5,70.8333 66.5,69.5C 65.1667,69.5 63.8333,69.5 62.5,69.5C 62.6495,70.552 62.4828,71.552 62,72.5C 58.168,73.8364 56.668,76.5031 57.5,80.5C 61.2586,79.9246 64.2586,81.0913 66.5,84C 64.87,86.4276 65.2033,88.261 67.5,89.5C 65.8521,93.1143 64.5187,96.7809 63.5,100.5C 62.2719,101.306 61.2719,102.306 60.5,103.5C 60.3083,100.399 59.6416,97.3992 58.5,94.5C 56.2173,93.8652 54.5507,92.5318 53.5,90.5C 54.0728,87.9147 55.7395,86.9147 58.5,87.5C 58.5,85.8333 58.5,84.1667 58.5,82.5C 53.7419,82.9411 50.9086,85.6078 50,90.5C 49.3292,91.2524 48.4959,91.5858 47.5,91.5C 48.8333,88.1667 50.1667,84.8333 51.5,81.5C 53.2503,80.3406 54.2503,78.674 54.5,76.5C 59.6029,70.8953 64.9362,65.3953 70.5,60C 72.7343,58.2502 75.0676,56.7502 77.5,55.5 Z"/></g>
<g><path style="opacity:1" fill="#2896e1" d="M 192.5,59.5 C 196.457,62.1218 200.124,65.1218 203.5,68.5C 203.5,69.1667 203.5,69.8333 203.5,70.5C 205.458,73.7915 207.791,76.7915 210.5,79.5C 212.712,83.5711 215.212,87.5711 218,91.5C 218.49,92.7932 218.657,94.1266 218.5,95.5C 212.932,96.1071 207.766,97.7737 203,100.5C 201.124,99.381 200.291,97.7144 200.5,95.5C 201.531,96.355 202.697,97.0217 204,97.5C 208.467,96.0809 212.967,94.7475 217.5,93.5C 213.61,90.027 211.11,85.6936 210,80.5C 209.667,81.1667 209.333,81.8333 209,82.5C 207.943,80.7806 207.11,78.9472 206.5,77C 205.207,76.51 203.873,76.3433 202.5,76.5C 203.097,72.0097 201.431,69.0097 197.5,67.5C 196.791,66.596 195.791,66.2627 194.5,66.5C 194.122,64.079 193.455,61.7457 192.5,59.5 Z"/></g>
<g><path style="opacity:0.239" fill="#3e071a" d="M 80.5,88.5 C 79.2993,90.9095 77.6326,92.9095 75.5,94.5C 76.2471,91.6385 77.9138,89.6385 80.5,88.5 Z"/></g>
<g><path style="opacity:1" fill="#f1264c" d="M 95.5,80.5 C 94.325,80.281 93.325,80.6143 92.5,81.5C 93.5443,83.7676 93.711,86.1009 93,88.5C 90.3778,90.4044 87.8778,92.4044 85.5,94.5C 87.2289,96.8511 87.8956,99.5178 87.5,102.5C 86.2392,100.71 84.7392,99.0429 83,97.5C 81.5295,99.8718 80.3628,99.8718 79.5,97.5C 79.8988,95.8034 80.3988,94.1368 81,92.5C 82.1475,93.4581 83.1475,93.1247 84,91.5C 84.6552,89.3716 85.4886,87.3716 86.5,85.5C 88.1667,83.5 89.8333,81.5 91.5,79.5C 92.5832,79.4606 93.5832,79.1272 94.5,78.5C 95.2975,78.9569 95.6309,79.6236 95.5,80.5 Z"/></g>
<g><path style="opacity:1" fill="#f4234c" d="M 103.5,79.5 C 105.99,83.4392 104.657,85.7725 99.5,86.5C 98.2889,87.7202 98.2889,88.8869 99.5,90C 96.4362,91.0637 93.9362,92.897 92,95.5C 91.5045,97.4727 91.3379,99.4727 91.5,101.5C 91.5,102.167 91.5,102.833 91.5,103.5C 90.609,104.11 89.609,104.443 88.5,104.5C 88.1667,103.833 87.8333,103.167 87.5,102.5C 87.8956,99.5178 87.2289,96.8511 85.5,94.5C 87.8778,92.4044 90.3778,90.4044 93,88.5C 93.711,86.1009 93.5443,83.7676 92.5,81.5C 93.325,80.6143 94.325,80.281 95.5,80.5C 95.3691,81.3764 95.7025,82.0431 96.5,82.5C 98.9831,80.883 100.483,78.5497 101,75.5C 102.011,74.6634 103.178,74.33 104.5,74.5C 104.52,76.143 103.853,77.4763 102.5,78.5C 102.624,79.1067 102.957,79.44 103.5,79.5 Z"/></g>
<g><path style="opacity:0.333" fill="#07345c" d="M 180.5,73.5 C 183.431,75.0908 186.098,77.0908 188.5,79.5C 190.942,82.729 193.608,85.729 196.5,88.5C 197.079,91.3311 198.412,93.6644 200.5,95.5C 200.291,97.7144 201.124,99.381 203,100.5C 207.766,97.7737 212.932,96.1071 218.5,95.5C 214.39,97.6007 210.056,99.434 205.5,101C 203.741,101.798 202.074,101.631 200.5,100.5C 195.531,90.223 188.864,81.223 180.5,73.5 Z"/></g>
<g><path style="opacity:0.298" fill="#480716" d="M 108.5,87.5 C 104.167,91.1667 100.167,95.1667 96.5,99.5C 96.4326,98.0413 96.7659,96.7079 97.5,95.5C 98.9387,93.6397 100.605,91.973 102.5,90.5C 104.059,88.7499 106.059,87.7499 108.5,87.5 Z"/></g>
<g><path style="opacity:0.639" fill="#891f37" d="M 97.5,95.5 C 96.7659,96.7079 96.4326,98.0413 96.5,99.5C 96.5,100.167 96.1667,100.5 95.5,100.5C 93.9699,101.211 92.6366,102.211 91.5,103.5C 91.5,102.833 91.5,102.167 91.5,101.5C 93.1878,99.1455 95.1878,97.1455 97.5,95.5 Z"/></g>
<g><path style="opacity:1" fill="#149cf0" d="M 51.5,123.5 C 51.4729,125.199 50.8062,126.533 49.5,127.5C 48.5,127.5 47.5,127.5 46.5,127.5C 46.8214,133.026 46.4881,138.36 45.5,143.5C 45.5,138.167 45.5,132.833 45.5,127.5C 46.5497,121.368 47.5497,115.201 48.5,109C 46.4569,101.634 45.2902,101.8 45,109.5C 44.7679,108.263 44.2679,107.263 43.5,106.5C 44.9323,102.783 46.2656,99.1163 47.5,95.5C 49.0245,94.8262 50.3578,93.8262 51.5,92.5C 52.0512,94.4132 52.2179,96.4132 52,98.5C 52.3333,98.8333 52.6667,99.1667 53,99.5C 53.2492,98.376 53.7492,97.376 54.5,96.5C 55.282,99.8461 54.9487,103.179 53.5,106.5C 52.0944,105.332 50.9277,105.665 50,107.5C 49.3333,113.167 49.3333,118.833 50,124.5C 50.3826,123.944 50.8826,123.611 51.5,123.5 Z"/></g>
<g><path style="opacity:1" fill="#1a98ef" d="M 60.5,103.5 C 60.1667,106.167 59.8333,108.833 59.5,111.5C 57.9605,113.838 57.2938,116.505 57.5,119.5C 55.9261,121.102 55.2594,123.102 55.5,125.5C 54.6618,125.842 54.3284,126.508 54.5,127.5C 53.6787,124.359 53.1787,121.025 53,117.5C 51.6814,119.25 51.1814,121.25 51.5,123.5C 50.8826,123.611 50.3826,123.944 50,124.5C 49.3333,118.833 49.3333,113.167 50,107.5C 50.9277,105.665 52.0944,105.332 53.5,106.5C 54.9487,103.179 55.282,99.8461 54.5,96.5C 53.7492,97.376 53.2492,98.376 53,99.5C 52.6667,99.1667 52.3333,98.8333 52,98.5C 52.2179,96.4132 52.0512,94.4132 51.5,92.5C 50.3578,93.8262 49.0245,94.8262 47.5,95.5C 47.5,94.1667 47.5,92.8333 47.5,91.5C 48.4959,91.5858 49.3292,91.2524 50,90.5C 50.9086,85.6078 53.7419,82.9411 58.5,82.5C 58.5,84.1667 58.5,85.8333 58.5,87.5C 55.7395,86.9147 54.0728,87.9147 53.5,90.5C 54.5507,92.5318 56.2173,93.8652 58.5,94.5C 59.6416,97.3992 60.3083,100.399 60.5,103.5 Z"/></g>
<g><path style="opacity:0.541" fill="#073057" d="M 51.5,81.5 C 50.1667,84.8333 48.8333,88.1667 47.5,91.5C 42.6686,100.159 39.5019,109.492 38,119.5C 37.5003,127.493 37.3336,135.493 37.5,143.5C 36.5119,138.36 36.1786,133.026 36.5,127.5C 36.8984,110.539 41.8984,95.2061 51.5,81.5 Z"/></g>
<g><path style="opacity:1" fill="#d82a4f" d="M 88.5,104.5 C 89.609,104.443 90.609,104.11 91.5,103.5C 89.4202,107.877 87.4202,112.211 85.5,116.5C 84.2318,118.905 83.5651,121.572 83.5,124.5C 83.7373,125.791 83.404,126.791 82.5,127.5C 82.8579,120.736 83.8579,114.069 85.5,107.5C 84.7222,106.844 84.0556,106.011 83.5,105C 83.8333,104.5 84.1667,104 84.5,103.5C 85.5195,104.687 86.6861,105.687 88,106.5C 88.4643,105.906 88.631,105.239 88.5,104.5 Z"/></g>
<g><path style="opacity:0.133" fill="#032e52" d="M 63.5,100.5 C 62.5376,104.395 61.2043,108.061 59.5,111.5C 59.8333,108.833 60.1667,106.167 60.5,103.5C 61.2719,102.306 62.2719,101.306 63.5,100.5 Z"/></g>
<g><path style="opacity:0.129" fill="#3e0613" d="M 95.5,100.5 C 91.6067,106.953 88.2734,113.62 85.5,120.5C 85.5,119.167 85.5,117.833 85.5,116.5C 87.4202,112.211 89.4202,107.877 91.5,103.5C 92.6366,102.211 93.9699,101.211 95.5,100.5 Z"/></g>
<g><path style="opacity:1" fill="#f0264f" d="M 86.5,85.5 C 85.4886,87.3716 84.6552,89.3716 84,91.5C 83.1475,93.1247 82.1475,93.4581 81,92.5C 80.3988,94.1368 79.8988,95.8034 79.5,97.5C 80.3628,99.8718 81.5295,99.8718 83,97.5C 84.7392,99.0429 86.2392,100.71 87.5,102.5C 87.8333,103.167 88.1667,103.833 88.5,104.5C 88.631,105.239 88.4643,105.906 88,106.5C 86.6861,105.687 85.5195,104.687 84.5,103.5C 84.1667,104 83.8333,104.5 83.5,105C 84.0556,106.011 84.7222,106.844 85.5,107.5C 84.5,107.5 83.5,107.5 82.5,107.5C 82.6495,108.552 82.4828,109.552 82,110.5C 80.3333,111.5 79,112.833 78,114.5C 78.0379,118.769 76.8712,122.602 74.5,126C 75.056,126.383 75.3893,126.883 75.5,127.5C 74.8333,127.5 74.1667,127.5 73.5,127.5C 73.719,126.325 73.3857,125.325 72.5,124.5C 71.5745,125.641 70.7412,125.641 70,124.5C 69.8138,121.964 69.3138,119.631 68.5,117.5C 69.1495,115.565 69.4828,113.565 69.5,111.5C 70.3599,106.793 72.0266,102.459 74.5,98.5C 77.8017,93.5969 81.8017,89.2636 86.5,85.5 Z"/></g>
<g><path style="opacity:1" fill="#2690da" d="M 47.5,91.5 C 47.5,92.8333 47.5,94.1667 47.5,95.5C 46.2656,99.1163 44.9323,102.783 43.5,106.5C 43.9051,110.048 43.4051,113.381 42,116.5C 41.6667,115.167 41.3333,113.833 41,112.5C 40.2278,116.89 40.3945,121.223 41.5,125.5C 41.1667,126.5 40.5,127.167 39.5,127.5C 38.5033,134.134 38.17,140.8 38.5,147.5C 39.3242,150.764 39.6576,154.098 39.5,157.5C 37.7895,153.119 37.1228,148.453 37.5,143.5C 37.3336,135.493 37.5003,127.493 38,119.5C 39.5019,109.492 42.6686,100.159 47.5,91.5 Z"/></g>
<g><path style="opacity:0.294" fill="#052945" d="M 59.5,111.5 C 59.4349,114.428 58.7682,117.095 57.5,119.5C 57.2938,116.505 57.9605,113.838 59.5,111.5 Z"/></g>
<g><path style="opacity:0.6" fill="#6b1027" d="M 74.5,96.5 C 74.5,97.1667 74.5,97.8333 74.5,98.5C 72.0266,102.459 70.3599,106.793 69.5,111.5C 68.4335,113.964 67.1002,116.297 65.5,118.5C 66.5672,110.28 69.5672,102.947 74.5,96.5 Z"/></g>
<g><path style="opacity:1" fill="#199af3" d="M 45.5,127.5 C 44.2438,127.461 43.2438,127.961 42.5,129C 43.5799,135.324 43.0799,141.824 41,148.5C 40.3292,147.748 39.4959,147.414 38.5,147.5C 38.17,140.8 38.5033,134.134 39.5,127.5C 40.5,127.167 41.1667,126.5 41.5,125.5C 40.3945,121.223 40.2278,116.89 41,112.5C 41.3333,113.833 41.6667,115.167 42,116.5C 43.4051,113.381 43.9051,110.048 43.5,106.5C 44.2679,107.263 44.7679,108.263 45,109.5C 45.2902,101.8 46.4569,101.634 48.5,109C 47.5497,115.201 46.5497,121.368 45.5,127.5 Z"/></g>
<g><path style="opacity:0.447" fill="#84112a" d="M 85.5,116.5 C 85.5,117.833 85.5,119.167 85.5,120.5C 85.5,120.833 85.5,121.167 85.5,121.5C 84.8333,122.5 84.1667,123.5 83.5,124.5C 83.5651,121.572 84.2318,118.905 85.5,116.5 Z"/></g>
<g><path style="opacity:1" fill="#f3234e" d="M 85.5,107.5 C 83.8579,114.069 82.8579,120.736 82.5,127.5C 81.7321,129.715 81.0654,132.048 80.5,134.5C 79.391,134.557 78.391,134.89 77.5,135.5C 78.0356,132.302 77.369,129.635 75.5,127.5C 75.3893,126.883 75.056,126.383 74.5,126C 76.8712,122.602 78.0379,118.769 78,114.5C 79,112.833 80.3333,111.5 82,110.5C 82.4828,109.552 82.6495,108.552 82.5,107.5C 83.5,107.5 84.5,107.5 85.5,107.5 Z"/></g>
<g><path style="opacity:1" fill="#189ceb" d="M 54.5,127.5 C 54.5,135.833 54.5,144.167 54.5,152.5C 52.8819,149.829 52.2153,146.829 52.5,143.5C 51.5,143.5 50.5,143.5 49.5,143.5C 49.5,138.167 49.5,132.833 49.5,127.5C 50.8062,126.533 51.4729,125.199 51.5,123.5C 51.1814,121.25 51.6814,119.25 53,117.5C 53.1787,121.025 53.6787,124.359 54.5,127.5 Z"/></g>
<g><path style="opacity:1" fill="#f2234b" d="M 68.5,117.5 C 69.3138,119.631 69.8138,121.964 70,124.5C 70.7412,125.641 71.5745,125.641 72.5,124.5C 73.3857,125.325 73.719,126.325 73.5,127.5C 72.448,127.351 71.448,127.517 70.5,128C 70.735,132.708 70.735,137.541 70.5,142.5C 69.6773,145.977 69.1773,149.644 69,153.5C 67.9563,152.377 67.2896,151.044 67,149.5C 66.5896,138.745 67.0896,128.078 68.5,117.5 Z"/></g>
<g><path style="opacity:1" fill="#ef274c" d="M 73.5,127.5 C 74.1667,127.5 74.8333,127.5 75.5,127.5C 77.369,129.635 78.0356,132.302 77.5,135.5C 77.6663,142.508 77.4996,149.508 77,156.5C 76.5756,158.615 75.4089,159.448 73.5,159C 73.5678,148.65 73.5678,138.15 73.5,127.5 Z"/></g>
<g><path style="opacity:1" fill="#f22350" d="M 73.5,127.5 C 73.5678,138.15 73.5678,148.65 73.5,159C 75.4089,159.448 76.5756,158.615 77,156.5C 77.4996,149.508 77.6663,142.508 77.5,135.5C 78.391,134.89 79.391,134.557 80.5,134.5C 80.0759,142.315 80.7425,149.982 82.5,157.5C 83.4614,164.104 82.128,170.104 78.5,175.5C 77.2295,171.717 77.5628,168.051 79.5,164.5C 78.132,163.406 76.9653,163.74 76,165.5C 74.9914,163.975 74.4914,162.308 74.5,160.5C 73.5,160.5 72.5,160.5 71.5,160.5C 71.7588,154.591 71.4255,148.591 70.5,142.5C 70.735,137.541 70.735,132.708 70.5,128C 71.448,127.517 72.448,127.351 73.5,127.5 Z"/></g>
<g><path style="opacity:0.418" fill="#3b0d17" d="M 254.5,147.5 C 254.817,143.298 254.483,139.298 253.5,135.5C 247.5,135.5 241.5,135.5 235.5,135.5C 235.811,134.522 236.478,133.855 237.5,133.5C 243.53,133.649 249.53,133.982 255.5,134.5C 255.818,139.032 255.485,143.366 254.5,147.5 Z"/></g>
<g><path style="opacity:0.154" fill="#052847" d="M 36.5,127.5 C 36.1786,133.026 36.5119,138.36 37.5,143.5C 37.1228,148.453 37.7895,153.119 39.5,157.5C 40.3242,160.764 40.6576,164.098 40.5,167.5C 36.0345,154.449 34.7012,141.115 36.5,127.5 Z"/></g>
<g><path style="opacity:0.961" fill="#ba264a" d="M 235.5,135.5 C 241.5,135.5 247.5,135.5 253.5,135.5C 253.819,140.363 253.486,145.03 252.5,149.5C 252.5,145.167 252.5,140.833 252.5,136.5C 247.167,136.5 241.833,136.5 236.5,136.5C 236.802,139.059 236.468,141.393 235.5,143.5C 235.5,140.833 235.5,138.167 235.5,135.5 Z"/></g>
<g><path style="opacity:1" fill="#e42d55" d="M 252.5,149.5 C 252.092,154.537 251.426,159.537 250.5,164.5C 247.804,167.921 246.47,171.921 246.5,176.5C 242.701,184.646 238.035,192.313 232.5,199.5C 233.448,196.86 234.448,194.193 235.5,191.5C 235.975,189.216 236.975,187.216 238.5,185.5C 240.708,184.977 242.208,183.644 243,181.5C 244.028,177.527 244.861,173.527 245.5,169.5C 250.279,159.504 251.612,149.004 249.5,138C 245.577,137.207 241.744,137.374 238,138.5C 237.491,146.658 236.324,154.658 234.5,162.5C 232.798,164.8 232.132,167.467 232.5,170.5C 231.5,170.5 230.5,170.5 229.5,170.5C 232.778,161.775 234.778,152.775 235.5,143.5C 236.468,141.393 236.802,139.059 236.5,136.5C 241.833,136.5 247.167,136.5 252.5,136.5C 252.5,140.833 252.5,145.167 252.5,149.5 Z"/></g>
<g><path style="opacity:0.597" fill="#590c20" d="M 65.5,118.5 C 64.6912,130.482 64.3578,142.482 64.5,154.5C 61.7774,142.438 62.1108,130.438 65.5,118.5 Z"/></g>
<g><path style="opacity:0.141" fill="#082b4a" d="M 57.5,119.5 C 56.5657,131.016 56.2324,142.349 56.5,153.5C 55.5064,144.348 55.1731,135.015 55.5,125.5C 55.2594,123.102 55.9261,121.102 57.5,119.5 Z"/></g>
<g><path style="opacity:0.221" fill="#430413" d="M 85.5,121.5 C 82.5591,136.329 83.2258,150.995 87.5,165.5C 86.5,163.5 85.5,161.5 84.5,159.5C 82.8527,148.912 82.186,138.245 82.5,127.5C 83.404,126.791 83.7373,125.791 83.5,124.5C 84.1667,123.5 84.8333,122.5 85.5,121.5 Z"/></g>
<g><path style="opacity:1" fill="#159bef" d="M 222.5,146.5 C 221.862,148.573 220.862,150.573 219.5,152.5C 220.106,154.709 220.773,156.876 221.5,159C 219.787,162.641 218.787,166.474 218.5,170.5C 216.47,175.071 213.97,179.404 211,183.5C 209.549,185.464 207.716,186.797 205.5,187.5C 206.041,184.348 205.041,181.848 202.5,180C 204.956,178.513 207.122,176.68 209,174.5C 209.569,177.014 209.069,179.348 207.5,181.5C 207.833,182.167 208.167,182.833 208.5,183.5C 210.899,180.524 212.899,177.357 214.5,174C 213.738,171.571 212.238,169.738 210,168.5C 209.808,166.423 209.308,164.423 208.5,162.5C 207.355,164.635 207.355,166.801 208.5,169C 208.138,170.225 207.638,171.391 207,172.5C 206.667,172.167 206.333,171.833 206,171.5C 205.51,172.793 205.343,174.127 205.5,175.5C 203.219,175.923 201.552,175.256 200.5,173.5C 200.005,169.497 201.505,166.497 205,164.5C 205.446,161.657 205.946,158.824 206.5,156C 206.472,154.93 206.139,154.097 205.5,153.5C 205.5,153.167 205.5,152.833 205.5,152.5C 206.239,152.631 206.906,152.464 207.5,152C 205.338,149.478 205.005,146.645 206.5,143.5C 211.652,143.621 216.985,143.621 222.5,143.5C 222.5,144.5 222.5,145.5 222.5,146.5 Z"/></g>
<g><path style="opacity:1" fill="#c62b4b" d="M 82.5,127.5 C 82.186,138.245 82.8527,148.912 84.5,159.5C 83.8333,158.833 83.1667,158.167 82.5,157.5C 80.7425,149.982 80.0759,142.315 80.5,134.5C 81.0654,132.048 81.7321,129.715 82.5,127.5 Z"/></g>
<g><path style="opacity:1" fill="#1b98e9" d="M 45.5,127.5 C 45.5,132.833 45.5,138.167 45.5,143.5C 44.2227,144.694 43.5561,146.36 43.5,148.5C 43.7872,153.546 43.7872,158.546 43.5,163.5C 44.5,163.5 45.5,163.5 46.5,163.5C 46.7394,165.467 46.4061,167.301 45.5,169C 46.3174,174.288 47.6507,179.455 49.5,184.5C 47.8333,182.5 46.1667,180.5 44.5,178.5C 44.2231,174.356 42.8897,170.689 40.5,167.5C 40.6576,164.098 40.3242,160.764 39.5,157.5C 39.6576,154.098 39.3242,150.764 38.5,147.5C 39.4959,147.414 40.3292,147.748 41,148.5C 43.0799,141.824 43.5799,135.324 42.5,129C 43.2438,127.961 44.2438,127.461 45.5,127.5 Z"/></g>
<g><path style="opacity:1" fill="#f1254d" d="M 245.5,169.5 C 242.526,172.285 240.359,171.619 239,167.5C 238.308,168.025 237.808,168.692 237.5,169.5C 239.447,171.276 239.78,173.276 238.5,175.5C 237.576,173.61 236.243,172.11 234.5,171C 235.817,168.063 235.817,165.23 234.5,162.5C 236.324,154.658 237.491,146.658 238,138.5C 241.744,137.374 245.577,137.207 249.5,138C 251.612,149.004 250.279,159.504 245.5,169.5 Z"/></g>
<g><path style="opacity:1" fill="#2788ce" d="M 226.5,144.5 C 225.866,152.4 224.199,160.066 221.5,167.5C 220.272,168.306 219.272,169.306 218.5,170.5C 218.787,166.474 219.787,162.641 221.5,159C 220.773,156.876 220.106,154.709 219.5,152.5C 220.862,150.573 221.862,148.573 222.5,146.5C 222.56,147.043 222.893,147.376 223.5,147.5C 224.466,145.604 224.799,143.604 224.5,141.5C 224.579,140.07 224.246,138.736 223.5,137.5C 202.177,136.5 180.844,136.167 159.5,136.5C 154.833,136.5 150.167,136.5 145.5,136.5C 145.5,141.833 145.5,147.167 145.5,152.5C 161.167,152.5 176.833,152.5 192.5,152.5C 193.833,152.5 195.167,152.5 196.5,152.5C 199.5,152.5 202.5,152.5 205.5,152.5C 205.5,152.833 205.5,153.167 205.5,153.5C 185.167,153.5 164.833,153.5 144.5,153.5C 144.5,147.5 144.5,141.5 144.5,135.5C 171.833,135.5 199.167,135.5 226.5,135.5C 226.5,138.5 226.5,141.5 226.5,144.5 Z"/></g>
<g><path style="opacity:1" fill="#1999ee" d="M 159.5,136.5 C 156.038,137.482 152.371,137.815 148.5,137.5C 148.5,142.167 148.5,146.833 148.5,151.5C 149.833,151.5 151.167,151.5 152.5,151.5C 165.449,151.736 177.616,151.402 189,150.5C 190.302,151.085 191.469,151.751 192.5,152.5C 176.833,152.5 161.167,152.5 145.5,152.5C 145.5,147.167 145.5,141.833 145.5,136.5C 150.167,136.5 154.833,136.5 159.5,136.5 Z"/></g>
<g><path style="opacity:1" fill="#1a99f2" d="M 194.5,142.5 C 195.167,142.5 195.833,142.5 196.5,142.5C 197.46,145.765 197.46,149.098 196.5,152.5C 195.167,152.5 193.833,152.5 192.5,152.5C 191.469,151.751 190.302,151.085 189,150.5C 177.616,151.402 165.449,151.736 152.5,151.5C 153.067,149.031 153.067,146.698 152.5,144.5C 154.756,144.398 157.089,144.732 159.5,145.5C 170.79,146.211 182.123,146.877 193.5,147.5C 193.629,145.784 193.962,144.117 194.5,142.5 Z"/></g>
<g><path style="opacity:1" fill="#109cf1" d="M 194.5,142.5 C 193.962,144.117 193.629,145.784 193.5,147.5C 182.123,146.877 170.79,146.211 159.5,145.5C 169.659,144.67 179.992,144.17 190.5,144C 180.167,143.667 169.833,143.333 159.5,143C 160.416,142.626 161.25,142.126 162,141.5C 172.953,141.732 183.786,142.065 194.5,142.5 Z"/></g>
<g><path style="opacity:1" fill="#179bf1" d="M 223.5,141.5 C 223.833,141.5 224.167,141.5 224.5,141.5C 224.799,143.604 224.466,145.604 223.5,147.5C 222.893,147.376 222.56,147.043 222.5,146.5C 222.5,145.5 222.5,144.5 222.5,143.5C 216.985,143.621 211.652,143.621 206.5,143.5C 205.005,146.645 205.338,149.478 207.5,152C 206.906,152.464 206.239,152.631 205.5,152.5C 202.5,152.5 199.5,152.5 196.5,152.5C 197.46,149.098 197.46,145.765 196.5,142.5C 204.322,141.919 213.322,141.586 223.5,141.5 Z"/></g>
<g><path style="opacity:1" fill="#0e9cf1" d="M 223.5,141.5 C 213.322,141.586 204.322,141.919 196.5,142.5C 195.833,142.5 195.167,142.5 194.5,142.5C 183.786,142.065 172.953,141.732 162,141.5C 161.25,142.126 160.416,142.626 159.5,143C 169.833,143.333 180.167,143.667 190.5,144C 179.992,144.17 169.659,144.67 159.5,145.5C 157.089,144.732 154.756,144.398 152.5,144.5C 152.5,143.5 152.5,142.5 152.5,141.5C 165.441,140.314 178.441,139.647 191.5,139.5C 202.522,139.501 213.188,140.168 223.5,141.5 Z"/></g>
<g><path style="opacity:1" fill="#1c9bf4" d="M 159.5,136.5 C 180.844,136.167 202.177,136.5 223.5,137.5C 224.246,138.736 224.579,140.07 224.5,141.5C 224.167,141.5 223.833,141.5 223.5,141.5C 213.188,140.168 202.522,139.501 191.5,139.5C 178.441,139.647 165.441,140.314 152.5,141.5C 152.5,142.5 152.5,143.5 152.5,144.5C 153.067,146.698 153.067,149.031 152.5,151.5C 151.167,151.5 149.833,151.5 148.5,151.5C 148.5,146.833 148.5,142.167 148.5,137.5C 152.371,137.815 156.038,137.482 159.5,136.5 Z"/></g>
<g><path style="opacity:0.359" fill="#0f2d4b" d="M 227.5,144.5 C 227.167,144.5 226.833,144.5 226.5,144.5C 226.5,141.5 226.5,138.5 226.5,135.5C 199.167,135.5 171.833,135.5 144.5,135.5C 144.5,141.5 144.5,147.5 144.5,153.5C 164.833,153.5 185.167,153.5 205.5,153.5C 205.737,154.791 205.404,155.791 204.5,156.5C 202.444,155.784 200.277,155.117 198,154.5C 179.876,155.802 161.709,155.802 143.5,154.5C 143.12,147.696 143.12,141.196 143.5,135C 171.831,134.5 200.165,134.333 228.5,134.5C 228.747,137.939 228.414,141.272 227.5,144.5 Z"/></g>
<g><path style="opacity:0.271" fill="#042141" d="M 226.5,144.5 C 226.833,144.5 227.167,144.5 227.5,144.5C 227.505,152.798 225.505,160.465 221.5,167.5C 224.199,160.066 225.866,152.4 226.5,144.5 Z"/></g>
<g><path style="opacity:1" fill="#e32b4f" d="M 69.5,111.5 C 69.4828,113.565 69.1495,115.565 68.5,117.5C 67.0896,128.078 66.5896,138.745 67,149.5C 67.2896,151.044 67.9563,152.377 69,153.5C 69.1773,149.644 69.6773,145.977 70.5,142.5C 71.4255,148.591 71.7588,154.591 71.5,160.5C 71.5858,161.496 71.2524,162.329 70.5,163C 72.2194,166.957 72.886,171.124 72.5,175.5C 71.9779,173.781 70.9779,172.448 69.5,171.5C 68.8629,168.544 68.3629,165.544 68,162.5C 67.6174,161.944 67.1174,161.611 66.5,161.5C 66.9465,158.99 66.2798,156.99 64.5,155.5C 64.5,155.167 64.5,154.833 64.5,154.5C 64.3578,142.482 64.6912,130.482 65.5,118.5C 67.1002,116.297 68.4335,113.964 69.5,111.5 Z"/></g>
<g><path style="opacity:0.224" fill="#500d1e" d="M 235.5,135.5 C 235.5,138.167 235.5,140.833 235.5,143.5C 234.778,152.775 232.778,161.775 229.5,170.5C 228.647,173.59 227.647,176.59 226.5,179.5C 225.5,179.5 224.5,179.5 223.5,179.5C 226.88,172.738 229.713,165.738 232,158.5C 233.41,150.721 234.576,143.054 235.5,135.5 Z"/></g>
<g><path style="opacity:1" fill="#1c67a1" d="M 55.5,125.5 C 55.1731,135.015 55.5064,144.348 56.5,153.5C 57.3414,155.379 57.6747,157.379 57.5,159.5C 57.5,160.833 57.5,162.167 57.5,163.5C 55.7642,160.159 54.7642,156.492 54.5,152.5C 54.5,144.167 54.5,135.833 54.5,127.5C 54.3284,126.508 54.6618,125.842 55.5,125.5 Z"/></g>
<g><path style="opacity:0.392" fill="#5a081b" d="M 64.5,155.5 C 66.2798,156.99 66.9465,158.99 66.5,161.5C 66.6741,163.861 67.0074,166.194 67.5,168.5C 65.7366,164.57 64.4032,160.404 63.5,156C 63.7284,155.601 64.0618,155.435 64.5,155.5 Z"/></g>
<g><path style="opacity:1" fill="#ec284f" d="M 82.5,157.5 C 83.1667,158.167 83.8333,158.833 84.5,159.5C 84.8164,164.464 86.4831,168.797 89.5,172.5C 91.1604,176.489 92.8271,180.489 94.5,184.5C 92.4514,183.118 90.7847,181.452 89.5,179.5C 89.4009,176.37 88.2342,173.704 86,171.5C 84.6667,172.167 83.3333,172.833 82,173.5C 81.7489,175.433 81.2489,177.266 80.5,179C 81.6105,181.737 81.7772,184.571 81,187.5C 80.3611,184.772 79.1944,184.272 77.5,186C 78.8613,187.584 79.528,189.418 79.5,191.5C 78.1696,189.508 76.8363,187.508 75.5,185.5C 74.9927,181.917 73.9927,178.583 72.5,175.5C 72.886,171.124 72.2194,166.957 70.5,163C 71.2524,162.329 71.5858,161.496 71.5,160.5C 72.5,160.5 73.5,160.5 74.5,160.5C 74.4914,162.308 74.9914,163.975 76,165.5C 76.9653,163.74 78.132,163.406 79.5,164.5C 77.5628,168.051 77.2295,171.717 78.5,175.5C 82.128,170.104 83.4614,164.104 82.5,157.5 Z"/></g>
<g><path style="opacity:0.231" fill="#530a1c" d="M 253.5,135.5 C 254.483,139.298 254.817,143.298 254.5,147.5C 254.185,157.771 251.852,167.437 247.5,176.5C 248.09,172.397 249.09,168.397 250.5,164.5C 251.426,159.537 252.092,154.537 252.5,149.5C 253.486,145.03 253.819,140.363 253.5,135.5 Z"/></g>
<g><path style="opacity:0.294" fill="#012a4b" d="M 204.5,156.5 C 204.448,159.346 203.448,161.68 201.5,163.5C 201.935,160.843 202.935,158.509 204.5,156.5 Z"/></g>
<g><path style="opacity:1" fill="#9f1b3a" d="M 66.5,161.5 C 67.1174,161.611 67.6174,161.944 68,162.5C 68.3629,165.544 68.8629,168.544 69.5,171.5C 68.8333,171.5 68.1667,171.5 67.5,171.5C 67.5,170.5 67.5,169.5 67.5,168.5C 67.0074,166.194 66.6741,163.861 66.5,161.5 Z"/></g>
<g><path style="opacity:0.431" fill="#032a46" d="M 57.5,159.5 C 58.7682,161.905 59.4349,164.572 59.5,167.5C 58.8333,166.5 58.1667,165.5 57.5,164.5C 57.5,164.167 57.5,163.833 57.5,163.5C 57.5,162.167 57.5,160.833 57.5,159.5 Z"/></g>
<g><path style="opacity:0.973" fill="#ad2542" d="M 250.5,164.5 C 249.09,168.397 248.09,172.397 247.5,176.5C 247.167,176.5 246.833,176.5 246.5,176.5C 246.47,171.921 247.804,167.921 250.5,164.5 Z"/></g>
<g><path style="opacity:1" fill="#199af0" d="M 49.5,127.5 C 49.5,132.833 49.5,138.167 49.5,143.5C 50.5,143.5 51.5,143.5 52.5,143.5C 52.2153,146.829 52.8819,149.829 54.5,152.5C 54.7642,156.492 55.7642,160.159 57.5,163.5C 57.5,163.833 57.5,164.167 57.5,164.5C 57.4095,167.152 58.0762,169.485 59.5,171.5C 60.2784,174.539 61.6117,177.206 63.5,179.5C 63.2104,182.785 63.877,185.785 65.5,188.5C 64.2779,190.077 63.2779,191.744 62.5,193.5C 61.1809,189.528 59.3475,185.862 57,182.5C 54.6845,183.367 52.6845,182.701 51,180.5C 50.3131,182.568 50.4798,184.568 51.5,186.5C 54.1636,187.498 56.497,188.998 58.5,191C 57.6919,191.308 57.0253,191.808 56.5,192.5C 57.8333,193.167 59.1667,193.833 60.5,194.5C 62.458,196.64 64.1247,198.973 65.5,201.5C 65.762,202.978 65.4287,204.311 64.5,205.5C 62.9309,204.286 62.0976,202.619 62,200.5C 61,200.167 60,199.833 59,199.5C 58.3828,198.551 58.5494,197.718 59.5,197C 58.4232,196.53 57.4232,196.697 56.5,197.5C 52.9237,193.901 50.5904,189.568 49.5,184.5C 47.6507,179.455 46.3174,174.288 45.5,169C 46.4061,167.301 46.7394,165.467 46.5,163.5C 45.5,163.5 44.5,163.5 43.5,163.5C 43.7872,158.546 43.7872,153.546 43.5,148.5C 43.5561,146.36 44.2227,144.694 45.5,143.5C 46.4881,138.36 46.8214,133.026 46.5,127.5C 47.5,127.5 48.5,127.5 49.5,127.5 Z"/></g>
<g><path style="opacity:1" fill="#15679a" d="M 57.5,164.5 C 58.1667,165.5 58.8333,166.5 59.5,167.5C 59.5,167.833 59.5,168.167 59.5,168.5C 59.5,169.5 59.5,170.5 59.5,171.5C 58.0762,169.485 57.4095,167.152 57.5,164.5 Z"/></g>
<g><path style="opacity:0.337" fill="#032a4c" d="M 40.5,167.5 C 42.8897,170.689 44.2231,174.356 44.5,178.5C 42.3987,175.203 41.0653,171.537 40.5,167.5 Z"/></g>
<g><path style="opacity:0.584" fill="#033150" d="M 59.5,168.5 C 61.2043,171.939 62.5376,175.605 63.5,179.5C 61.6117,177.206 60.2784,174.539 59.5,171.5C 59.5,170.5 59.5,169.5 59.5,168.5 Z"/></g>
<g><path style="opacity:0.671" fill="#7d142e" d="M 84.5,159.5 C 85.5,161.5 86.5,163.5 87.5,165.5C 88.5375,166.93 89.2041,168.597 89.5,170.5C 89.5,171.167 89.5,171.833 89.5,172.5C 86.4831,168.797 84.8164,164.464 84.5,159.5 Z"/></g>
<g><path style="opacity:1" fill="#f0264f" d="M 234.5,162.5 C 235.817,165.23 235.817,168.063 234.5,171C 236.243,172.11 237.576,173.61 238.5,175.5C 239.78,173.276 239.447,171.276 237.5,169.5C 237.808,168.692 238.308,168.025 239,167.5C 240.359,171.619 242.526,172.285 245.5,169.5C 244.861,173.527 244.028,177.527 243,181.5C 242.208,183.644 240.708,184.977 238.5,185.5C 236.008,181.631 234.675,177.298 234.5,172.5C 233.178,172.67 232.011,172.337 231,171.5C 230.51,172.793 230.343,174.127 230.5,175.5C 231.5,175.5 232.5,175.5 233.5,175.5C 233.773,177.958 232.773,179.625 230.5,180.5C 229.719,179.271 229.219,177.938 229,176.5C 228.137,178.749 228.637,180.582 230.5,182C 229.944,182.383 229.611,182.883 229.5,183.5C 229.656,184.498 229.156,185.498 228,186.5C 227.943,184.09 226.776,182.756 224.5,182.5C 225.551,181.778 226.218,180.778 226.5,179.5C 227.647,176.59 228.647,173.59 229.5,170.5C 230.5,170.5 231.5,170.5 232.5,170.5C 232.132,167.467 232.798,164.8 234.5,162.5 Z"/></g>
<g><path style="opacity:0.016" fill="#410713" d="M 67.5,171.5 C 68.1667,171.5 68.8333,171.5 69.5,171.5C 70.3705,174.112 71.0372,176.779 71.5,179.5C 69.6567,177.147 68.3234,174.48 67.5,171.5 Z"/></g>
<g><path style="opacity:1" fill="#b52745" d="M 69.5,171.5 C 70.9779,172.448 71.9779,173.781 72.5,175.5C 73.9927,178.583 74.9927,181.917 75.5,185.5C 75.1667,185.5 74.8333,185.5 74.5,185.5C 73.6618,185.158 73.3284,184.492 73.5,183.5C 73.3404,181.847 72.6737,180.514 71.5,179.5C 71.0372,176.779 70.3705,174.112 69.5,171.5 Z"/></g>
<g><path style="opacity:0.302" fill="#510f1d" d="M 89.5,170.5 C 93.826,179.146 99.1594,187.146 105.5,194.5C 103.5,192.833 101.5,191.167 99.5,189.5C 97.6053,188.027 95.9387,186.36 94.5,184.5C 92.8271,180.489 91.1604,176.489 89.5,172.5C 89.5,171.833 89.5,171.167 89.5,170.5 Z"/></g>
<g><path style="opacity:0.992" fill="#2b76b1" d="M 194.5,176.5 C 194.5,177.167 194.5,177.833 194.5,178.5C 191.767,181.239 188.767,183.573 185.5,185.5C 188.167,182.167 191.167,179.167 194.5,176.5 Z"/></g>
<g><path style="opacity:1" fill="#1a9af4" d="M 205.5,187.5 C 204.167,187.5 202.833,187.5 201.5,187.5C 201.124,183.034 200.124,178.701 198.5,174.5C 198.957,173.702 199.624,173.369 200.5,173.5C 201.552,175.256 203.219,175.923 205.5,175.5C 205.343,174.127 205.51,172.793 206,171.5C 206.333,171.833 206.667,172.167 207,172.5C 207.638,171.391 208.138,170.225 208.5,169C 207.355,166.801 207.355,164.635 208.5,162.5C 209.308,164.423 209.808,166.423 210,168.5C 212.238,169.738 213.738,171.571 214.5,174C 212.899,177.357 210.899,180.524 208.5,183.5C 208.167,182.833 207.833,182.167 207.5,181.5C 209.069,179.348 209.569,177.014 209,174.5C 207.122,176.68 204.956,178.513 202.5,180C 205.041,181.848 206.041,184.348 205.5,187.5 Z"/></g>
<g><path style="opacity:1" fill="#f3234e" d="M 238.5,185.5 C 236.975,187.216 235.975,189.216 235.5,191.5C 234.244,191.904 233.077,192.571 232,193.5C 231.5,193.167 231,192.833 230.5,192.5C 230.638,189.478 230.305,186.478 229.5,183.5C 229.611,182.883 229.944,182.383 230.5,182C 228.637,180.582 228.137,178.749 229,176.5C 229.219,177.938 229.719,179.271 230.5,180.5C 232.773,179.625 233.773,177.958 233.5,175.5C 232.5,175.5 231.5,175.5 230.5,175.5C 230.343,174.127 230.51,172.793 231,171.5C 232.011,172.337 233.178,172.67 234.5,172.5C 234.675,177.298 236.008,181.631 238.5,185.5 Z"/></g>
<g><path style="opacity:0.118" fill="#3b0316" d="M 71.5,179.5 C 72.6737,180.514 73.3404,181.847 73.5,183.5C 71.8958,182.713 71.2291,181.38 71.5,179.5 Z"/></g>
<g><path style="opacity:0.31" fill="#042445" d="M 201.5,163.5 C 199.643,168.041 197.309,172.375 194.5,176.5C 191.167,179.167 188.167,182.167 185.5,185.5C 183.079,187.238 180.412,188.571 177.5,189.5C 187.255,182.413 195.255,173.746 201.5,163.5 Z"/></g>
<g><path style="opacity:0.098" fill="#062d52" d="M 221.5,167.5 C 214.859,183.807 203.525,195.473 187.5,202.5C 187.369,201.624 187.702,200.957 188.5,200.5C 192.916,198.089 197.25,195.589 201.5,193C 203.464,191.549 204.797,189.716 205.5,187.5C 207.716,186.797 209.549,185.464 211,183.5C 213.97,179.404 216.47,175.071 218.5,170.5C 219.272,169.306 220.272,168.306 221.5,167.5 Z"/></g>
<g><path style="opacity:1" fill="#f3234d" d="M 89.5,179.5 C 88.735,178.34 87.735,177.34 86.5,176.5C 85.0956,179.403 85.429,182.07 87.5,184.5C 88.4776,184.023 89.3109,183.357 90,182.5C 90.3333,182.833 90.6667,183.167 91,183.5C 90.5707,186.225 90.404,188.892 90.5,191.5C 86.206,197.921 83.706,196.921 83,188.5C 81.9614,189.244 81.4614,190.244 81.5,191.5C 80.8333,191.5 80.1667,191.5 79.5,191.5C 79.528,189.418 78.8613,187.584 77.5,186C 79.1944,184.272 80.3611,184.772 81,187.5C 81.7772,184.571 81.6105,181.737 80.5,179C 81.2489,177.266 81.7489,175.433 82,173.5C 83.3333,172.833 84.6667,172.167 86,171.5C 88.2342,173.704 89.4009,176.37 89.5,179.5 Z"/></g>
<g><path style="opacity:0.827" fill="#114a77" d="M 63.5,179.5 C 65.7365,183.645 67.7365,187.978 69.5,192.5C 67.8058,191.473 66.4725,190.139 65.5,188.5C 63.877,185.785 63.2104,182.785 63.5,179.5 Z"/></g>
<g><path style="opacity:1" fill="#1a98ec" d="M 194.5,178.5 C 195.5,178.5 196.5,178.5 197.5,178.5C 197.401,181.673 198.068,184.673 199.5,187.5C 199.457,188.416 199.124,189.083 198.5,189.5C 196.533,189.739 194.699,189.406 193,188.5C 190.977,190.013 191.144,191.346 193.5,192.5C 190.59,193.973 187.59,194.806 184.5,195C 188.222,191.462 187.222,189.629 181.5,189.5C 181.5,190.5 181.5,191.5 181.5,192.5C 179.708,192.634 178.042,192.301 176.5,191.5C 176.833,190.833 177.167,190.167 177.5,189.5C 180.412,188.571 183.079,187.238 185.5,185.5C 188.767,183.573 191.767,181.239 194.5,178.5 Z"/></g>
<g><path style="opacity:1" fill="#1a9af3" d="M 65.5,188.5 C 65.9926,190.806 66.3259,193.139 66.5,195.5C 67.8221,195.33 68.9887,195.663 70,196.5C 70.3333,198.167 70.6667,199.833 71,201.5C 71.6708,200.748 72.5041,200.414 73.5,200.5C 73.366,202.292 73.6993,203.958 74.5,205.5C 74.4993,209.252 72.8326,210.252 69.5,208.5C 70.0525,206.273 70.0525,203.939 69.5,201.5C 68.1667,201.5 66.8333,201.5 65.5,201.5C 64.1247,198.973 62.458,196.64 60.5,194.5C 59.1667,193.833 57.8333,193.167 56.5,192.5C 57.0253,191.808 57.6919,191.308 58.5,191C 56.497,188.998 54.1636,187.498 51.5,186.5C 50.4798,184.568 50.3131,182.568 51,180.5C 52.6845,182.701 54.6845,183.367 57,182.5C 59.3475,185.862 61.1809,189.528 62.5,193.5C 63.2779,191.744 64.2779,190.077 65.5,188.5 Z"/></g>
<g><path style="opacity:1" fill="#2195e1" d="M 205.5,153.5 C 206.139,154.097 206.472,154.93 206.5,156C 205.946,158.824 205.446,161.657 205,164.5C 201.505,166.497 200.005,169.497 200.5,173.5C 199.624,173.369 198.957,173.702 198.5,174.5C 200.124,178.701 201.124,183.034 201.5,187.5C 202.833,187.5 204.167,187.5 205.5,187.5C 204.797,189.716 203.464,191.549 201.5,193C 197.25,195.589 192.916,198.089 188.5,200.5C 187.702,200.957 187.369,201.624 187.5,202.5C 185.833,202.5 184.167,202.5 182.5,202.5C 182.389,201.883 182.056,201.383 181.5,201C 186.608,200.18 190.941,197.847 194.5,194C 195.793,193.51 197.127,193.343 198.5,193.5C 198.5,192.167 198.5,190.833 198.5,189.5C 199.124,189.083 199.457,188.416 199.5,187.5C 198.068,184.673 197.401,181.673 197.5,178.5C 196.5,178.5 195.5,178.5 194.5,178.5C 194.5,177.833 194.5,177.167 194.5,176.5C 197.309,172.375 199.643,168.041 201.5,163.5C 203.448,161.68 204.448,159.346 204.5,156.5C 205.404,155.791 205.737,154.791 205.5,153.5 Z"/></g>
<g><path style="opacity:1" fill="#a42341" d="M 99.5,189.5 C 101.5,191.167 103.5,192.833 105.5,194.5C 105.5,195.167 105.5,195.833 105.5,196.5C 103.5,194.833 101.5,193.167 99.5,191.5C 99.5,190.833 99.5,190.167 99.5,189.5 Z"/></g>
<g><path style="opacity:0.188" fill="#04203a" d="M 177.5,189.5 C 177.167,190.167 176.833,190.833 176.5,191.5C 174.883,192.038 173.216,192.371 171.5,192.5C 173.181,190.992 175.181,189.992 177.5,189.5 Z"/></g>
<g><path style="opacity:1" fill="#f22450" d="M 224.5,182.5 C 226.776,182.756 227.943,184.09 228,186.5C 229.156,185.498 229.656,184.498 229.5,183.5C 230.305,186.478 230.638,189.478 230.5,192.5C 231,192.833 231.5,193.167 232,193.5C 233.077,192.571 234.244,191.904 235.5,191.5C 234.448,194.193 233.448,196.86 232.5,199.5C 232.167,199.5 231.833,199.5 231.5,199.5C 230.078,199.25 229.078,198.417 228.5,197C 226.658,197.068 224.991,196.901 223.5,196.5C 225.806,194.616 225.639,192.616 223,190.5C 220.966,191.721 219.133,193.055 217.5,194.5C 219.462,190.277 221.795,186.277 224.5,182.5 Z"/></g>
<g><path style="opacity:1" fill="#d22c50" d="M 79.5,191.5 C 80.1667,191.5 80.8333,191.5 81.5,191.5C 82.3598,194.531 84.1931,196.865 87,198.5C 88.1223,200.42 88.9556,202.42 89.5,204.5C 87.5,202.833 85.5,201.167 83.5,199.5C 82.5711,196.588 81.2378,193.921 79.5,191.5 Z"/></g>
<g><path style="opacity:1" fill="#f1254e" d="M 89.5,179.5 C 90.7847,181.452 92.4514,183.118 94.5,184.5C 95.9387,186.36 97.6053,188.027 99.5,189.5C 99.5,190.167 99.5,190.833 99.5,191.5C 99.5106,193.017 100.177,194.184 101.5,195C 98.8758,195.576 98.2092,196.91 99.5,199C 96.5385,202.488 97.2052,205.155 101.5,207C 97.7102,205.973 93.7102,205.473 89.5,205.5C 89.5,205.167 89.5,204.833 89.5,204.5C 88.9556,202.42 88.1223,200.42 87,198.5C 84.1931,196.865 82.3598,194.531 81.5,191.5C 81.4614,190.244 81.9614,189.244 83,188.5C 83.706,196.921 86.206,197.921 90.5,191.5C 90.404,188.892 90.5707,186.225 91,183.5C 90.6667,183.167 90.3333,182.833 90,182.5C 89.3109,183.357 88.4776,184.023 87.5,184.5C 85.429,182.07 85.0956,179.403 86.5,176.5C 87.735,177.34 88.735,178.34 89.5,179.5 Z"/></g>
<g><path style="opacity:0.859" fill="#113357" d="M 127.5,195.5 C 124.824,194.992 122.157,194.825 119.5,195C 120.056,195.383 120.389,195.883 120.5,196.5C 115.659,195.888 114.159,193.555 116,189.5C 119.59,192.167 123.424,194.167 127.5,195.5 Z"/></g>
<g><path style="opacity:0.416" fill="#4b0515" d="M 223.5,179.5 C 220.056,187.953 214.389,194.619 206.5,199.5C 212.894,193.44 218.561,186.774 223.5,179.5 Z"/></g>
<g><path style="opacity:1" fill="#288cd2" d="M 65.5,188.5 C 66.4725,190.139 67.8058,191.473 69.5,192.5C 69.427,194.027 70.0937,195.027 71.5,195.5C 71.427,197.027 72.0937,198.027 73.5,198.5C 73.5,199.167 73.5,199.833 73.5,200.5C 72.5041,200.414 71.6708,200.748 71,201.5C 70.6667,199.833 70.3333,198.167 70,196.5C 68.9887,195.663 67.8221,195.33 66.5,195.5C 66.3259,193.139 65.9926,190.806 65.5,188.5 Z"/></g>
<g><path style="opacity:0.22" fill="#022751" d="M 69.5,192.5 C 70.9063,192.973 71.573,193.973 71.5,195.5C 70.0937,195.027 69.427,194.027 69.5,192.5 Z"/></g>
<g><path style="opacity:0.11" fill="#4b0919" d="M 74.5,185.5 C 74.8333,185.5 75.1667,185.5 75.5,185.5C 76.8363,187.508 78.1696,189.508 79.5,191.5C 81.2378,193.921 82.5711,196.588 83.5,199.5C 81.8712,198.375 80.3712,197.041 79,195.5C 77.6297,192.009 76.1297,188.675 74.5,185.5 Z"/></g>
<g><path style="opacity:0.282" fill="#072847" d="M 71.5,195.5 C 72.9063,195.973 73.573,196.973 73.5,198.5C 72.0937,198.027 71.427,197.027 71.5,195.5 Z"/></g>
<g><path style="opacity:0.02" fill="#430613" d="M 105.5,194.5 C 108.447,195.781 110.781,197.781 112.5,200.5C 110.184,199.194 107.85,197.861 105.5,196.5C 105.5,195.833 105.5,195.167 105.5,194.5 Z"/></g>
<g><path style="opacity:0.369" fill="#032f50" d="M 120.5,196.5 C 122.027,196.427 123.027,197.094 123.5,198.5C 121.973,198.573 120.973,197.906 120.5,196.5 Z"/></g>
<g><path style="opacity:0.255" fill="#072645" d="M 171.5,192.5 C 167.077,195.648 162.077,197.648 156.5,198.5C 154.833,198.5 153.167,198.5 151.5,198.5C 144.798,198.664 138.131,198.331 131.5,197.5C 129.847,197.34 128.514,196.674 127.5,195.5C 142.513,198.872 157.18,197.872 171.5,192.5 Z"/></g>
<g><path style="opacity:1" fill="#d32b4f" d="M 223.5,179.5 C 224.5,179.5 225.5,179.5 226.5,179.5C 226.218,180.778 225.551,181.778 224.5,182.5C 221.795,186.277 219.462,190.277 217.5,194.5C 216.067,195.833 214.733,197.333 213.5,199C 211.113,199.564 209.113,200.73 207.5,202.5C 206.167,202.833 204.833,203.167 203.5,203.5C 204.5,202.167 205.5,200.833 206.5,199.5C 214.389,194.619 220.056,187.953 223.5,179.5 Z"/></g>
<g><path style="opacity:0.494" fill="#135f8e" d="M 131.5,197.5 C 138.131,198.331 144.798,198.664 151.5,198.5C 147.03,199.486 142.363,199.819 137.5,199.5C 135.102,199.741 133.102,199.074 131.5,197.5 Z"/></g>
<g><path style="opacity:1" fill="#eb294e" d="M 223.5,196.5 C 224.991,196.901 226.658,197.068 228.5,197C 229.078,198.417 230.078,199.25 231.5,199.5C 227.855,206.479 222.522,211.812 215.5,215.5C 215.343,214.127 215.51,212.793 216,211.5C 216.333,211.833 216.667,212.167 217,212.5C 218.454,210.756 218.621,209.089 217.5,207.5C 217.539,206.417 217.873,205.417 218.5,204.5C 217.41,202.997 216.243,202.664 215,203.5C 215.023,197.087 216.69,196.42 220,201.5C 222.172,200.491 223.338,198.824 223.5,196.5 Z"/></g>
<g><path style="opacity:0.341" fill="#00274d" d="M 73.5,198.5 C 74.9063,198.973 75.573,199.973 75.5,201.5C 74.8333,201.167 74.1667,200.833 73.5,200.5C 73.5,199.833 73.5,199.167 73.5,198.5 Z"/></g>
<g><path style="opacity:1" fill="#1c9af3" d="M 198.5,189.5 C 198.5,190.833 198.5,192.167 198.5,193.5C 197.127,193.343 195.793,193.51 194.5,194C 190.941,197.847 186.608,200.18 181.5,201C 182.056,201.383 182.389,201.883 182.5,202.5C 182.5,203.167 182.167,203.5 181.5,203.5C 179.435,203.483 177.435,203.15 175.5,202.5C 173.166,201.876 170.833,201.043 168.5,200C 172.718,196.85 177.052,196.683 181.5,199.5C 182.167,199.167 182.833,198.833 183.5,198.5C 180.669,196.917 178.003,195.084 175.5,193C 176.056,192.617 176.389,192.117 176.5,191.5C 178.042,192.301 179.708,192.634 181.5,192.5C 181.5,191.5 181.5,190.5 181.5,189.5C 187.222,189.629 188.222,191.462 184.5,195C 187.59,194.806 190.59,193.973 193.5,192.5C 191.144,191.346 190.977,190.013 193,188.5C 194.699,189.406 196.533,189.739 198.5,189.5 Z"/></g>
<g><path style="opacity:1" fill="#f4214e" d="M 223.5,196.5 C 223.338,198.824 222.172,200.491 220,201.5C 216.69,196.42 215.023,197.087 215,203.5C 216.243,202.664 217.41,202.997 218.5,204.5C 217.873,205.417 217.539,206.417 217.5,207.5C 216.817,209.176 215.483,209.843 213.5,209.5C 213.421,208.07 213.754,206.736 214.5,205.5C 212.955,204.548 211.288,204.215 209.5,204.5C 209.724,206.787 210.391,208.953 211.5,211C 211.167,211.5 210.833,212 210.5,212.5C 209.319,211.485 208.319,210.319 207.5,209C 208.72,206.83 208.72,204.663 207.5,202.5C 209.113,200.73 211.113,199.564 213.5,199C 214.733,197.333 216.067,195.833 217.5,194.5C 219.133,193.055 220.966,191.721 223,190.5C 225.639,192.616 225.806,194.616 223.5,196.5 Z"/></g>
<g><path style="opacity:0.808" fill="#0c3e65" d="M 123.5,198.5 C 126.702,199.047 129.702,200.047 132.5,201.5C 135.926,203.751 139.592,205.417 143.5,206.5C 142.833,206.5 142.167,206.5 141.5,206.5C 134.703,205.431 128.703,202.765 123.5,198.5 Z"/></g>
<g><path style="opacity:1" fill="#159aef" d="M 176.5,191.5 C 176.389,192.117 176.056,192.617 175.5,193C 178.003,195.084 180.669,196.917 183.5,198.5C 182.833,198.833 182.167,199.167 181.5,199.5C 177.052,196.683 172.718,196.85 168.5,200C 170.833,201.043 173.166,201.876 175.5,202.5C 175.38,203.586 174.713,204.253 173.5,204.5C 168.863,203.78 164.197,203.28 159.5,203C 157.561,202.092 156.561,200.592 156.5,198.5C 162.077,197.648 167.077,195.648 171.5,192.5C 173.216,192.371 174.883,192.038 176.5,191.5 Z"/></g>
<g><path style="opacity:0.325" fill="#022d54" d="M 75.5,201.5 C 76.9063,201.973 77.573,202.973 77.5,204.5C 76.0937,204.027 75.427,203.027 75.5,201.5 Z"/></g>
<g><path style="opacity:1" fill="#ec264d" d="M 99.5,191.5 C 101.5,193.167 103.5,194.833 105.5,196.5C 107.85,197.861 110.184,199.194 112.5,200.5C 113.92,202.709 115.587,204.709 117.5,206.5C 114.784,205.06 111.951,203.727 109,202.5C 107.599,204.192 105.766,204.859 103.5,204.5C 103.039,207.303 101.705,209.637 99.5,211.5C 96.591,210.576 93.9243,209.243 91.5,207.5C 90.5,207.167 89.8333,206.5 89.5,205.5C 93.7102,205.473 97.7102,205.973 101.5,207C 97.2052,205.155 96.5385,202.488 99.5,199C 98.2092,196.91 98.8758,195.576 101.5,195C 100.177,194.184 99.5106,193.017 99.5,191.5 Z"/></g>
<g><path style="opacity:0.255" fill="#460b19" d="M 112.5,200.5 C 117.674,203.252 122.674,206.252 127.5,209.5C 126.5,209.5 125.5,209.5 124.5,209.5C 122.5,208.5 120.5,207.5 118.5,206.5C 118.167,206.5 117.833,206.5 117.5,206.5C 115.587,204.709 113.92,202.709 112.5,200.5 Z"/></g>
<g><path style="opacity:1" fill="#2290da" d="M 151.5,198.5 C 153.167,198.5 154.833,198.5 156.5,198.5C 156.561,200.592 157.561,202.092 159.5,203C 164.197,203.28 168.863,203.78 173.5,204.5C 174.713,204.253 175.38,203.586 175.5,202.5C 177.435,203.15 179.435,203.483 181.5,203.5C 177.89,205.574 173.89,206.741 169.5,207C 160.785,207.775 152.119,207.608 143.5,206.5C 139.592,205.417 135.926,203.751 132.5,201.5C 137.477,202.984 142.477,204.484 147.5,206C 154.167,206.667 160.833,206.667 167.5,206C 162.81,205.497 158.143,204.83 153.5,204C 152.833,203 152.167,202 151.5,201C 146.649,200.826 141.982,200.326 137.5,199.5C 142.363,199.819 147.03,199.486 151.5,198.5 Z"/></g>
<g><path style="opacity:1" fill="#2699ea" d="M 127.5,195.5 C 128.514,196.674 129.847,197.34 131.5,197.5C 133.102,199.074 135.102,199.741 137.5,199.5C 141.982,200.326 146.649,200.826 151.5,201C 152.167,202 152.833,203 153.5,204C 158.143,204.83 162.81,205.497 167.5,206C 160.833,206.667 154.167,206.667 147.5,206C 142.477,204.484 137.477,202.984 132.5,201.5C 129.702,200.047 126.702,199.047 123.5,198.5C 123.027,197.094 122.027,196.427 120.5,196.5C 120.389,195.883 120.056,195.383 119.5,195C 122.157,194.825 124.824,194.992 127.5,195.5 Z"/></g>
<g><path style="opacity:1" fill="#f3244f" d="M 117.5,206.5 C 117.833,206.5 118.167,206.5 118.5,206.5C 119.677,208.103 119.511,209.436 118,210.5C 105.577,206.206 104.911,207.206 116,213.5C 116.188,215.061 115.355,215.728 113.5,215.5C 111.489,212.813 109.822,212.98 108.5,216C 109.823,216.816 110.489,217.983 110.5,219.5C 109.167,219.5 107.833,219.5 106.5,219.5C 105.198,217.178 103.198,215.845 100.5,215.5C 100.5,215.167 100.5,214.833 100.5,214.5C 100.443,213.391 100.11,212.391 99.5,211.5C 101.705,209.637 103.039,207.303 103.5,204.5C 105.766,204.859 107.599,204.192 109,202.5C 111.951,203.727 114.784,205.06 117.5,206.5 Z"/></g>
<g><path style="opacity:0.404" fill="#09365d" d="M 77.5,204.5 C 79.914,205.911 81.5806,207.911 82.5,210.5C 80.086,209.089 78.4194,207.089 77.5,204.5 Z"/></g>
<g><path style="opacity:0.2" fill="#052547" d="M 44.5,178.5 C 46.1667,180.5 47.8333,182.5 49.5,184.5C 50.5904,189.568 52.9237,193.901 56.5,197.5C 61.3419,205.686 67.3419,213.019 74.5,219.5C 68.2281,215.063 62.7281,209.73 58,203.5C 52.4381,195.708 47.9381,187.374 44.5,178.5 Z"/></g>
<g><path style="opacity:0.016" fill="#34070c" d="M 83.5,199.5 C 85.5,201.167 87.5,202.833 89.5,204.5C 89.5,204.833 89.5,205.167 89.5,205.5C 89.8333,206.5 90.5,207.167 91.5,207.5C 93.1667,209.5 94.8333,211.5 96.5,213.5C 91.8771,210.379 87.7104,206.712 84,202.5C 83.5172,201.552 83.3505,200.552 83.5,199.5 Z"/></g>
<g><path style="opacity:0.105" fill="#062645" d="M 182.5,202.5 C 184.167,202.5 185.833,202.5 187.5,202.5C 176.007,208.696 163.673,210.862 150.5,209C 147.203,208.796 144.203,207.963 141.5,206.5C 142.167,206.5 142.833,206.5 143.5,206.5C 152.119,207.608 160.785,207.775 169.5,207C 173.89,206.741 177.89,205.574 181.5,203.5C 182.167,203.5 182.5,203.167 182.5,202.5 Z"/></g>
<g><path style="opacity:1" fill="#ea284f" d="M 207.5,202.5 C 208.72,204.663 208.72,206.83 207.5,209C 208.319,210.319 209.319,211.485 210.5,212.5C 210.833,212 211.167,211.5 211.5,211C 210.391,208.953 209.724,206.787 209.5,204.5C 211.288,204.215 212.955,204.548 214.5,205.5C 213.754,206.736 213.421,208.07 213.5,209.5C 215.483,209.843 216.817,209.176 217.5,207.5C 218.621,209.089 218.454,210.756 217,212.5C 216.667,212.167 216.333,211.833 216,211.5C 215.51,212.793 215.343,214.127 215.5,215.5C 212.37,217.726 209.703,220.393 207.5,223.5C 205.801,223.34 204.134,223.506 202.5,224C 199.274,226.575 195.607,228.075 191.5,228.5C 191.5,227.5 191.5,226.5 191.5,225.5C 193.167,225.5 194.833,225.5 196.5,225.5C 201.545,224.405 202.879,221.905 200.5,218C 202.808,216.133 205.475,215.133 208.5,215C 207.271,213.471 205.771,212.304 204,211.5C 201.636,213.363 199.136,215.029 196.5,216.5C 195.304,216.154 195.304,215.654 196.5,215C 194.117,214.935 193.45,214.102 194.5,212.5C 194,212.167 193.5,211.833 193,211.5C 191.306,213.429 189.139,214.429 186.5,214.5C 182.7,216.143 178.7,216.81 174.5,216.5C 174.5,216.167 174.5,215.833 174.5,215.5C 181.868,214.397 188.868,212.23 195.5,209C 198.065,206.92 200.732,205.087 203.5,203.5C 204.833,203.167 206.167,202.833 207.5,202.5 Z"/></g>
<g><path style="opacity:1" fill="#c22849" d="M 91.5,207.5 C 93.9243,209.243 96.591,210.576 99.5,211.5C 100.11,212.391 100.443,213.391 100.5,214.5C 99.1667,214.167 97.8333,213.833 96.5,213.5C 94.8333,211.5 93.1667,209.5 91.5,207.5 Z"/></g>
<g><path style="opacity:0.353" fill="#360b13" d="M 127.5,209.5 C 133.589,211.515 139.589,213.515 145.5,215.5C 140.402,214.809 135.402,213.642 130.5,212C 129.058,211.623 128.058,210.79 127.5,209.5 Z"/></g>
<g><path style="opacity:0.498" fill="#550e1e" d="M 206.5,199.5 C 205.5,200.833 204.5,202.167 203.5,203.5C 200.732,205.087 198.065,206.92 195.5,209C 188.868,212.23 181.868,214.397 174.5,215.5C 179.605,213.358 184.938,211.192 190.5,209C 196.054,206.062 201.387,202.896 206.5,199.5 Z"/></g>
<g><path style="opacity:0.302" fill="#0f395c" d="M 82.5,210.5 C 84.8552,211.522 86.5218,213.188 87.5,215.5C 84.8106,214.811 83.1439,213.144 82.5,210.5 Z"/></g>
<g><path style="opacity:1" fill="#ef264f" d="M 118.5,206.5 C 120.5,207.5 122.5,208.5 124.5,209.5C 127.692,212.595 131.359,214.928 135.5,216.5C 133.801,216.34 132.134,216.506 130.5,217C 130.957,217.414 131.291,217.914 131.5,218.5C 130.349,219.731 129.183,219.731 128,218.5C 127.667,219.167 127.333,219.833 127,220.5C 124.602,216.031 121.268,215.031 117,217.5C 115.541,217.192 114.374,216.525 113.5,215.5C 115.355,215.728 116.188,215.061 116,213.5C 104.911,207.206 105.577,206.206 118,210.5C 119.511,209.436 119.677,208.103 118.5,206.5 Z"/></g>
<g><path style="opacity:0.157" fill="#390d14" d="M 96.5,213.5 C 97.8333,213.833 99.1667,214.167 100.5,214.5C 100.5,214.833 100.5,215.167 100.5,215.5C 100.5,215.833 100.5,216.167 100.5,216.5C 98.368,216.446 97.0347,215.446 96.5,213.5 Z"/></g>
<g><path style="opacity:1" fill="#1a99eb" d="M 65.5,201.5 C 66.8333,201.5 68.1667,201.5 69.5,201.5C 70.0525,203.939 70.0525,206.273 69.5,208.5C 72.8326,210.252 74.4993,209.252 74.5,205.5C 78.6889,208.027 81.3555,211.694 82.5,216.5C 86.5123,215.887 88.5123,217.554 88.5,221.5C 86.7105,222.013 85.0438,222.513 83.5,223C 82.5419,221.853 82.8753,220.853 84.5,220C 83.8742,219.25 83.3742,218.416 83,217.5C 81.2111,219.229 79.0444,219.896 76.5,219.5C 75.8333,219.5 75.1667,219.5 74.5,219.5C 67.3419,213.019 61.3419,205.686 56.5,197.5C 57.4232,196.697 58.4232,196.53 59.5,197C 58.5494,197.718 58.3828,198.551 59,199.5C 60,199.833 61,200.167 62,200.5C 62.0976,202.619 62.9309,204.286 64.5,205.5C 65.4287,204.311 65.762,202.978 65.5,201.5 Z"/></g>
<g><path style="opacity:0.427" fill="#4b0f1c" d="M 147.5,215.5 C 156.5,215.5 165.5,215.5 174.5,215.5C 174.5,215.833 174.5,216.167 174.5,216.5C 169.161,216.686 163.828,217.019 158.5,217.5C 154.553,217.637 150.886,216.97 147.5,215.5 Z"/></g>
<g><path style="opacity:0.039" fill="#032950" d="M 89.5,217.5 C 91.7488,218.08 93.4154,219.413 94.5,221.5C 92.2512,220.92 90.5846,219.587 89.5,217.5 Z"/></g>
<g><path style="opacity:0.231" fill="#35070b" d="M 101.5,217.5 C 103.027,217.427 104.027,218.094 104.5,219.5C 102.973,219.573 101.973,218.906 101.5,217.5 Z"/></g>
<g><path style="opacity:0.984" fill="#95203a" d="M 100.5,215.5 C 103.198,215.845 105.198,217.178 106.5,219.5C 105.833,219.5 105.167,219.5 104.5,219.5C 104.027,218.094 103.027,217.427 101.5,217.5C 100.833,217.5 100.5,217.167 100.5,216.5C 100.5,216.167 100.5,215.833 100.5,215.5 Z"/></g>
<g><path style="opacity:1" fill="#f2244d" d="M 113.5,215.5 C 114.374,216.525 115.541,217.192 117,217.5C 121.268,215.031 124.602,216.031 127,220.5C 127.333,219.833 127.667,219.167 128,218.5C 129.183,219.731 130.349,219.731 131.5,218.5C 131.291,217.914 130.957,217.414 130.5,217C 132.134,216.506 133.801,216.34 135.5,216.5C 140.322,216.352 144.988,217.019 149.5,218.5C 149.611,219.117 149.944,219.617 150.5,220C 156.248,220.212 161.915,220.712 167.5,221.5C 168.563,223.347 170.229,223.681 172.5,222.5C 175.589,223.21 178.589,224.21 181.5,225.5C 187.682,223.714 188.682,225.047 184.5,229.5C 183.311,230.429 181.978,230.762 180.5,230.5C 177.978,230.872 175.978,230.039 174.5,228C 174.957,227.586 175.291,227.086 175.5,226.5C 170.096,225.761 164.763,224.761 159.5,223.5C 156.248,222.623 152.915,221.957 149.5,221.5C 147.109,221.559 144.775,221.893 142.5,222.5C 136.477,219.333 131.143,220.166 126.5,225C 124.19,225.497 121.857,225.663 119.5,225.5C 118.833,225.5 118.167,225.5 117.5,225.5C 116.422,222.092 114.089,220.092 110.5,219.5C 110.489,217.983 109.823,216.816 108.5,216C 109.822,212.98 111.489,212.813 113.5,215.5 Z"/></g>
<g><path style="opacity:1" fill="#c1294c" d="M 124.5,209.5 C 125.5,209.5 126.5,209.5 127.5,209.5C 128.058,210.79 129.058,211.623 130.5,212C 135.402,213.642 140.402,214.809 145.5,215.5C 146.167,215.5 146.833,215.5 147.5,215.5C 150.886,216.97 154.553,217.637 158.5,217.5C 163.828,217.019 169.161,216.686 174.5,216.5C 173.048,217.302 171.382,217.802 169.5,218C 162.842,218.5 156.175,218.666 149.5,218.5C 144.988,217.019 140.322,216.352 135.5,216.5C 131.359,214.928 127.692,212.595 124.5,209.5 Z"/></g>
<g><path style="opacity:1" fill="#f5224e" d="M 196.5,225.5 C 197.007,224.141 198.007,223.141 199.5,222.5C 197.014,219.965 194.68,220.298 192.5,223.5C 190.023,220.692 187.023,219.025 183.5,218.5C 184.718,217.839 186.051,217.172 187.5,216.5C 187.137,215.817 186.804,215.15 186.5,214.5C 189.139,214.429 191.306,213.429 193,211.5C 193.5,211.833 194,212.167 194.5,212.5C 193.45,214.102 194.117,214.935 196.5,215C 195.304,215.654 195.304,216.154 196.5,216.5C 199.136,215.029 201.636,213.363 204,211.5C 205.771,212.304 207.271,213.471 208.5,215C 205.475,215.133 202.808,216.133 200.5,218C 202.879,221.905 201.545,224.405 196.5,225.5 Z"/></g>
<g><path style="opacity:0.451" fill="#540b1e" d="M 246.5,176.5 C 246.833,176.5 247.167,176.5 247.5,176.5C 239.979,197.028 226.646,212.694 207.5,223.5C 209.703,220.393 212.37,217.726 215.5,215.5C 222.522,211.812 227.855,206.479 231.5,199.5C 231.833,199.5 232.167,199.5 232.5,199.5C 238.035,192.313 242.701,184.646 246.5,176.5 Z"/></g>
<g><path style="opacity:1" fill="#ef294e" d="M 186.5,214.5 C 186.804,215.15 187.137,215.817 187.5,216.5C 186.051,217.172 184.718,217.839 183.5,218.5C 178.515,221.07 173.182,222.07 167.5,221.5C 161.915,220.712 156.248,220.212 150.5,220C 149.944,219.617 149.611,219.117 149.5,218.5C 156.175,218.666 162.842,218.5 169.5,218C 171.382,217.802 173.048,217.302 174.5,216.5C 178.7,216.81 182.7,216.143 186.5,214.5 Z"/></g>
<g><path style="opacity:1" fill="#ef264f" d="M 183.5,218.5 C 187.023,219.025 190.023,220.692 192.5,223.5C 194.68,220.298 197.014,219.965 199.5,222.5C 198.007,223.141 197.007,224.141 196.5,225.5C 194.833,225.5 193.167,225.5 191.5,225.5C 191.5,226.5 191.5,227.5 191.5,228.5C 189.412,229.201 187.412,230.201 185.5,231.5C 183.139,231.674 180.806,232.007 178.5,232.5C 179.167,231.833 179.833,231.167 180.5,230.5C 181.978,230.762 183.311,230.429 184.5,229.5C 188.682,225.047 187.682,223.714 181.5,225.5C 178.589,224.21 175.589,223.21 172.5,222.5C 170.229,223.681 168.563,223.347 167.5,221.5C 173.182,222.07 178.515,221.07 183.5,218.5 Z"/></g>
<g><path style="opacity:0.443" fill="#032a4e" d="M 74.5,219.5 C 75.1667,219.5 75.8333,219.5 76.5,219.5C 77.5,220.833 78.5,222.167 79.5,223.5C 77.2512,222.92 75.5846,221.587 74.5,219.5 Z"/></g>
<g><path style="opacity:0.38" fill="#3d0813" d="M 104.5,219.5 C 105.167,219.5 105.833,219.5 106.5,219.5C 106.833,220.167 107.167,220.833 107.5,221.5C 105.973,221.573 104.973,220.906 104.5,219.5 Z"/></g>
<g><path style="opacity:1" fill="#d82c50" d="M 106.5,219.5 C 107.833,219.5 109.167,219.5 110.5,219.5C 114.089,220.092 116.422,222.092 117.5,225.5C 116.833,225.5 116.167,225.5 115.5,225.5C 113.151,223.659 110.485,222.326 107.5,221.5C 107.167,220.833 106.833,220.167 106.5,219.5 Z"/></g>
<g><path style="opacity:1" fill="#eb2951" d="M 159.5,223.5 C 153.11,223.474 146.61,223.807 140,224.5C 139,223.833 138,223.167 137,222.5C 135.729,223.883 134.229,224.883 132.5,225.5C 130.833,225.5 129.167,225.5 127.5,225.5C 127.5,226.5 127.5,227.5 127.5,228.5C 130.152,228.41 132.485,229.076 134.5,230.5C 132.167,230.5 129.833,230.5 127.5,230.5C 125.5,229.5 123.5,228.5 121.5,227.5C 120.833,226.833 120.167,226.167 119.5,225.5C 121.857,225.663 124.19,225.497 126.5,225C 131.143,220.166 136.477,219.333 142.5,222.5C 144.775,221.893 147.109,221.559 149.5,221.5C 152.915,221.957 156.248,222.623 159.5,223.5 Z"/></g>
<g><path style="opacity:0.424" fill="#012a52" d="M 79.5,223.5 C 81.4044,223.738 82.7377,224.738 83.5,226.5C 81.5956,226.262 80.2623,225.262 79.5,223.5 Z"/></g>
<g><path style="opacity:1" fill="#f0254e" d="M 159.5,223.5 C 164.763,224.761 170.096,225.761 175.5,226.5C 175.291,227.086 174.957,227.586 174.5,228C 175.978,230.039 177.978,230.872 180.5,230.5C 179.833,231.167 179.167,231.833 178.5,232.5C 175.833,232.5 173.167,232.5 170.5,232.5C 171.058,231.21 172.058,230.377 173.5,230C 170.574,229.782 167.74,229.282 165,228.5C 158.211,229.44 151.544,229.774 145,229.5C 142.765,224.893 140.098,224.559 137,228.5C 134.974,228.085 133.474,227.085 132.5,225.5C 134.229,224.883 135.729,223.883 137,222.5C 138,223.167 139,223.833 140,224.5C 146.61,223.807 153.11,223.474 159.5,223.5 Z"/></g>
<g><path style="opacity:0.224" fill="#430815" d="M 107.5,221.5 C 110.485,222.326 113.151,223.659 115.5,225.5C 116.167,226.167 116.833,226.833 117.5,227.5C 116.448,227.649 115.448,227.483 114.5,227C 111.893,225.428 109.559,223.594 107.5,221.5 Z"/></g>
<g><path style="opacity:1" fill="#2091dc" d="M 73.5,200.5 C 74.1667,200.833 74.8333,201.167 75.5,201.5C 75.427,203.027 76.0937,204.027 77.5,204.5C 78.4194,207.089 80.086,209.089 82.5,210.5C 83.1439,213.144 84.8106,214.811 87.5,215.5C 88.8333,215.5 89.5,216.167 89.5,217.5C 90.5846,219.587 92.2512,220.92 94.5,221.5C 96.2303,222.026 97.5637,223.026 98.5,224.5C 98.4142,225.496 98.7476,226.329 99.5,227C 101.727,227.941 103.727,229.108 105.5,230.5C 101.248,230.257 97.7481,228.591 95,225.5C 94.5,225.833 94,226.167 93.5,226.5C 95.0433,228.253 96.0433,230.253 96.5,232.5C 94.4418,231.067 92.1085,230.4 89.5,230.5C 89.0269,229.094 88.0269,228.427 86.5,228.5C 86.0269,227.094 85.0269,226.427 83.5,226.5C 82.7377,224.738 81.4044,223.738 79.5,223.5C 78.5,222.167 77.5,220.833 76.5,219.5C 79.0444,219.896 81.2111,219.229 83,217.5C 83.3742,218.416 83.8742,219.25 84.5,220C 82.8753,220.853 82.5419,221.853 83.5,223C 85.0438,222.513 86.7105,222.013 88.5,221.5C 88.5123,217.554 86.5123,215.887 82.5,216.5C 81.3555,211.694 78.6889,208.027 74.5,205.5C 73.6993,203.958 73.366,202.292 73.5,200.5 Z"/></g>
<g><path style="opacity:0.914" fill="#921e35" d="M 115.5,225.5 C 116.167,225.5 116.833,225.5 117.5,225.5C 118.167,225.5 118.833,225.5 119.5,225.5C 120.167,226.167 120.833,226.833 121.5,227.5C 120.5,227.5 119.5,227.5 118.5,227.5C 118.167,227.5 117.833,227.5 117.5,227.5C 116.833,226.833 116.167,226.167 115.5,225.5 Z"/></g>
<g><path style="opacity:1" fill="#f1254e" d="M 132.5,225.5 C 133.474,227.085 134.974,228.085 137,228.5C 140.098,224.559 142.765,224.893 145,229.5C 151.544,229.774 158.211,229.44 165,228.5C 167.74,229.282 170.574,229.782 173.5,230C 172.058,230.377 171.058,231.21 170.5,232.5C 158.344,235.425 146.344,234.759 134.5,230.5C 132.485,229.076 130.152,228.41 127.5,228.5C 127.5,227.5 127.5,226.5 127.5,225.5C 129.167,225.5 130.833,225.5 132.5,225.5 Z"/></g>
<g><path style="opacity:0.22" fill="#012241" d="M 83.5,226.5 C 85.0269,226.427 86.0269,227.094 86.5,228.5C 84.9731,228.573 83.9731,227.906 83.5,226.5 Z"/></g>
<g><path style="opacity:0.773" fill="#550f1e" d="M 118.5,227.5 C 119.5,227.5 120.5,227.5 121.5,227.5C 123.5,228.5 125.5,229.5 127.5,230.5C 127.5,230.833 127.5,231.167 127.5,231.5C 124.088,230.925 121.088,229.592 118.5,227.5 Z"/></g>
<g><path style="opacity:0.208" fill="#062138" d="M 86.5,228.5 C 88.0269,228.427 89.0269,229.094 89.5,230.5C 87.9731,230.573 86.9731,229.906 86.5,228.5 Z"/></g>
<g><path style="opacity:0.016" fill="#52081b" d="M 207.5,223.5 C 199.997,228.746 191.664,232.079 182.5,233.5C 183.5,232.833 184.5,232.167 185.5,231.5C 187.412,230.201 189.412,229.201 191.5,228.5C 195.607,228.075 199.274,226.575 202.5,224C 204.134,223.506 205.801,223.34 207.5,223.5 Z"/></g>
<g><path style="opacity:0.573" fill="#0a2e54" d="M 89.5,230.5 C 92.1085,230.4 94.4418,231.067 96.5,232.5C 96.8417,233.338 97.5084,233.672 98.5,233.5C 99.9842,235.074 101.651,236.407 103.5,237.5C 98.2472,236.207 93.5806,233.874 89.5,230.5 Z"/></g>
<g><path style="opacity:1" fill="#2299f1" d="M 105.5,230.5 C 106.463,233.463 108.463,235.463 111.5,236.5C 111.333,236.833 111.167,237.167 111,237.5C 106.712,236.459 102.545,235.126 98.5,233.5C 97.5084,233.672 96.8417,233.338 96.5,232.5C 96.0433,230.253 95.0433,228.253 93.5,226.5C 94,226.167 94.5,225.833 95,225.5C 97.7481,228.591 101.248,230.257 105.5,230.5 Z"/></g>
<g><path style="opacity:0.957" fill="#ae2847" d="M 127.5,231.5 C 127.5,231.167 127.5,230.833 127.5,230.5C 129.833,230.5 132.167,230.5 134.5,230.5C 146.344,234.759 158.344,235.425 170.5,232.5C 173.167,232.5 175.833,232.5 178.5,232.5C 180.806,232.007 183.139,231.674 185.5,231.5C 184.5,232.167 183.5,232.833 182.5,233.5C 181.432,234.434 180.099,234.768 178.5,234.5C 168.179,235.393 157.845,235.56 147.5,235C 140.836,233.692 134.169,232.525 127.5,231.5 Z"/></g>
<g><path style="opacity:0.431" fill="#093b63" d="M 98.5,224.5 C 104.637,227.736 110.637,231.236 116.5,235C 122.609,237.183 128.609,239.349 134.5,241.5C 133.167,241.5 131.833,241.5 130.5,241.5C 121.601,239.197 113.267,235.531 105.5,230.5C 103.727,229.108 101.727,227.941 99.5,227C 98.7476,226.329 98.4142,225.496 98.5,224.5 Z"/></g>
<g><path style="opacity:0.329" fill="#460a18" d="M 127.5,231.5 C 134.169,232.525 140.836,233.692 147.5,235C 157.845,235.56 168.179,235.393 178.5,234.5C 161.244,238.609 144.244,237.609 127.5,231.5 Z"/></g>
<g><path style="opacity:0.569" fill="#092d50" d="M 103.5,237.5 C 106.716,237.345 109.383,238.345 111.5,240.5C 108.458,240.267 105.792,239.267 103.5,237.5 Z"/></g>
<g><path style="opacity:1" fill="#2790d9" d="M 105.5,230.5 C 113.267,235.531 121.601,239.197 130.5,241.5C 126.833,241.5 123.167,241.5 119.5,241.5C 116.833,241.167 114.167,240.833 111.5,240.5C 109.383,238.345 106.716,237.345 103.5,237.5C 101.651,236.407 99.9842,235.074 98.5,233.5C 102.545,235.126 106.712,236.459 111,237.5C 111.167,237.167 111.333,236.833 111.5,236.5C 108.463,235.463 106.463,233.463 105.5,230.5 Z"/></g>
<g><path style="opacity:0.463" fill="#00214c" d="M 111.5,240.5 C 114.167,240.833 116.833,241.167 119.5,241.5C 120.5,242.167 121.5,242.833 122.5,243.5C 118.521,243.258 114.854,242.258 111.5,240.5 Z"/></g>
<g><path style="opacity:1" fill="#2c7ab0" d="M 119.5,241.5 C 123.167,241.5 126.833,241.5 130.5,241.5C 131.833,241.5 133.167,241.5 134.5,241.5C 134.833,241.5 135.167,241.5 135.5,241.5C 137.214,242.738 139.214,243.405 141.5,243.5C 140.432,244.434 139.099,244.768 137.5,244.5C 132.518,243.947 127.518,243.613 122.5,243.5C 121.5,242.833 120.5,242.167 119.5,241.5 Z"/></g>
<g><path style="opacity:0.255" fill="#091f3a" d="M 135.5,241.5 C 141.316,241.768 146.983,242.768 152.5,244.5C 152.291,245.086 151.957,245.586 151.5,246C 141.537,247.016 131.871,246.182 122.5,243.5C 127.518,243.613 132.518,243.947 137.5,244.5C 140.976,245.643 144.642,245.81 148.5,245C 146.406,243.648 144.073,243.148 141.5,243.5C 139.214,243.405 137.214,242.738 135.5,241.5 Z"/></g>
<g><path style="opacity:0.894" fill="#23486a" d="M 141.5,243.5 C 144.073,243.148 146.406,243.648 148.5,245C 144.642,245.81 140.976,245.643 137.5,244.5C 139.099,244.768 140.432,244.434 141.5,243.5 Z"/></g>
</svg>
